<?xml version="1.0" standalone="no"?>
<!DOCTYPE svg PUBLIC "-//W3C//DTD SVG 20010904//EN"
 "http://www.w3.org/TR/2001/REC-SVG-20010904/DTD/svg10.dtd">
<svg version="1.0" xmlns="http://www.w3.org/2000/svg"
 width="1920.000000pt" height="1080.000000pt" viewBox="0 0 1920.000000 1080.000000"
 preserveAspectRatio="xMidYMid meet">
<metadata>
Created by potrace 1.16, written by Peter Selinger 2001-2019
</metadata>
<g transform="translate(0.000000,1080.000000) scale(0.100000,-0.100000)"
fill="#000000" stroke="none">
<path d="M0 8849 c0 -1194 4 -1948 9 -1944 5 3 28 33 51 68 36 54 99 131 165
202 11 12 49 55 85 95 35 40 102 111 147 158 46 47 83 91 83 98 0 7 15 18 33
23 18 5 24 10 13 10 -18 1 -18 2 1 19 11 9 25 27 32 40 6 12 18 22 26 22 8 0
15 5 15 10 0 6 7 10 15 10 9 0 18 12 21 30 4 16 10 27 15 24 5 -3 9 0 9 5 0 6
7 11 15 11 17 0 20 -16 5 -25 -6 -4 -8 -11 -4 -16 3 -6 -3 -18 -13 -27 -11 -9
-36 -45 -57 -79 -26 -42 -43 -60 -52 -56 -8 3 -14 2 -12 -3 4 -16 -19 -70 -38
-89 -11 -10 -19 -28 -20 -39 -1 -12 -5 -29 -9 -38 -10 -24 24 -24 51 0 19 18
84 29 84 14 0 -4 13 -7 29 -6 25 2 30 -2 34 -30 2 -17 0 -34 -5 -37 -5 -3 -10
-10 -10 -15 0 -5 -3 -15 -6 -23 -3 -7 1 -17 8 -21 9 -6 4 -13 -19 -25 -18 -9
-30 -19 -27 -22 9 -9 -24 -43 -41 -43 -8 0 -11 -4 -8 -10 3 -5 -1 -10 -9 -10
-8 0 -18 -9 -21 -20 -3 -11 -12 -20 -20 -20 -7 0 -15 -6 -18 -13 -2 -6 -29
-21 -58 -31 -51 -18 -129 -82 -129 -106 0 -6 -7 -10 -15 -10 -8 0 -15 -4 -15
-8 0 -11 -87 -102 -97 -102 -5 0 -21 -13 -36 -29 -19 -19 -43 -31 -73 -36 -24
-3 -44 -10 -44 -16 0 -5 -8 -9 -19 -9 -10 0 -24 -7 -31 -15 -7 -8 -19 -15 -26
-15 -12 0 -14 -130 -14 -816 l0 -816 48 29 c68 40 87 55 100 80 7 12 25 24 42
28 16 4 30 11 30 16 0 5 6 9 13 9 7 0 42 20 79 45 37 25 70 45 73 45 4 0 25
13 48 28 41 28 93 43 327 97 106 25 176 48 335 112 125 50 192 72 240 76 28 3
64 10 80 17 48 19 92 21 104 6 9 -11 7 -28 -8 -72 -20 -54 -19 -104 0 -104 5
0 14 -11 20 -24 7 -14 23 -27 37 -31 14 -3 40 -18 56 -33 38 -33 41 -71 8 -83
-13 -5 -20 -14 -17 -19 4 -7 -3 -9 -19 -6 -15 3 -24 1 -21 -5 4 -5 -1 -9 -9
-9 -8 0 -32 -11 -52 -25 -20 -14 -43 -25 -51 -25 -35 0 -123 -96 -109 -119 3
-5 0 -14 -8 -20 -8 -7 -17 -27 -20 -46 -4 -18 -10 -35 -14 -38 -4 -2 -2 -3 5
-1 13 3 43 -27 43 -44 0 -7 8 -12 18 -12 14 0 15 -2 2 -10 -8 -5 -11 -12 -7
-16 3 -4 13 -1 21 5 8 7 20 10 26 6 6 -4 18 -1 27 7 9 7 14 8 10 2 -3 -6 0
-20 8 -30 12 -16 16 -16 24 -5 10 15 35 6 26 -10 -4 -5 1 -9 9 -9 19 0 21 16
4 23 -7 2 -10 8 -5 12 4 5 13 3 19 -3 7 -7 26 -12 44 -12 17 0 37 -7 44 -15
14 -16 45 -21 35 -5 -3 6 1 7 9 4 9 -3 16 -10 16 -15 0 -6 9 -5 20 1 19 10 25
6 21 -14 -1 -5 5 -4 13 3 8 7 28 12 43 11 15 -1 30 -1 33 0 18 9 57 5 79 -6
22 -12 28 -12 37 1 6 8 21 15 33 15 13 0 19 4 16 10 -4 6 -11 8 -16 5 -5 -4
-9 8 -9 24 0 17 3 30 8 29 4 0 17 3 30 8 l23 10 -24 26 c-23 24 -23 26 -5 40
18 15 17 16 -10 27 -21 9 -28 18 -27 39 0 22 5 28 28 30 15 2 27 8 27 15 0 6
7 2 15 -9 8 -10 15 -15 15 -9 0 5 7 -1 16 -13 8 -12 20 -20 25 -16 5 3 19 -6
30 -20 11 -15 25 -24 30 -20 6 3 25 -6 44 -20 18 -14 39 -26 45 -26 6 0 10 -6
8 -12 -5 -15 24 -39 69 -57 20 -8 30 -18 26 -25 -3 -6 -3 -8 2 -4 12 11 66
-24 61 -39 -6 -13 32 -39 42 -29 3 4 16 -4 29 -16 13 -12 23 -18 23 -15 0 4
17 -2 37 -13 21 -11 45 -20 53 -20 8 0 25 -16 38 -35 12 -19 29 -35 36 -35 8
0 23 -10 33 -22 18 -23 77 -68 88 -68 7 0 6 35 -2 44 -11 11 -11 46 0 39 6 -4
8 1 4 11 -4 10 -10 29 -13 42 -3 13 -10 24 -15 24 -5 0 -9 7 -9 15 0 7 -7 18
-16 23 -12 7 -13 11 -5 17 8 5 2 15 -20 31 -18 13 -27 24 -19 24 11 0 11 3 2
12 -14 14 -16 42 -2 33 6 -3 10 -1 10 4 0 6 -7 11 -15 11 -8 0 -15 5 -15 10 0
6 -7 10 -16 10 -8 0 -13 4 -10 9 3 4 -13 26 -37 47 -50 46 -107 117 -107 134
0 6 5 8 10 5 6 -3 13 1 16 10 6 14 8 14 18 -1 11 -14 16 -14 35 -5 21 12 22
11 10 -11 -11 -22 -11 -22 7 -7 22 19 60 10 70 -16 4 -8 13 -15 21 -15 13 0
13 -3 2 -17 -11 -15 -11 -16 1 -6 18 17 54 17 44 1 -5 -8 -2 -9 10 -5 10 4 19
1 23 -9 3 -8 12 -13 21 -9 8 3 21 -3 28 -12 8 -11 13 -13 14 -5 0 18 18 15 37
-8 18 -21 53 -27 53 -10 0 6 7 10 15 10 8 0 15 -5 15 -11 0 -6 6 -17 14 -25
11 -11 16 -11 19 -1 4 9 7 9 15 -1 5 -7 16 -10 25 -7 8 4 24 2 35 -4 16 -9 23
-6 35 12 14 19 16 19 16 5 1 -17 31 -27 31 -10 0 12 48 13 55 2 4 -6 12 -4 21
5 9 8 19 13 24 10 5 -3 12 -1 15 5 4 6 15 8 25 5 10 -3 21 -1 25 5 3 5 19 10
35 10 16 0 32 5 35 10 9 15 69 38 107 41 18 2 40 9 48 15 16 13 54 23 105 28
17 2 37 6 45 9 36 13 71 17 65 7 -3 -5 2 -11 12 -12 25 -2 33 -3 73 -13 19 -4
47 -7 63 -6 15 1 27 -4 27 -10 0 -13 153 -1 191 15 9 4 20 6 25 4 13 -3 87 12
99 21 6 4 30 14 55 21 25 8 47 14 50 15 3 1 20 6 38 10 17 4 32 11 32 16 0 5
12 9 26 9 24 0 73 19 238 94 39 18 107 47 151 65 66 26 88 41 127 85 26 29 57
75 70 102 13 27 26 51 31 52 4 2 7 9 7 16 0 6 17 48 39 91 94 194 134 280 157
343 14 37 34 85 44 107 32 67 82 208 86 245 3 19 11 40 19 46 8 6 15 16 15 23
0 6 5 11 11 11 5 0 8 4 5 9 -3 5 8 37 25 72 17 35 36 74 42 87 6 12 14 22 19
22 4 0 8 6 8 14 0 8 6 21 13 28 7 7 22 27 32 43 39 61 158 215 166 215 5 0 9
4 9 9 0 5 13 23 29 40 15 16 34 43 40 60 8 17 23 32 37 35 14 4 22 11 18 17
-3 6 3 24 15 40 12 16 19 35 15 41 -4 6 -3 8 4 4 6 -3 13 -2 16 2 10 17 120 2
166 -23 25 -13 65 -34 90 -46 25 -12 40 -24 33 -26 -14 -5 -5 -33 16 -50 14
-11 13 -13 -6 -19 -12 -3 -22 -13 -22 -22 0 -10 -2 -28 -4 -42 -2 -14 1 -31 6
-38 7 -8 4 -18 -7 -31 -9 -10 -14 -25 -11 -34 4 -8 1 -18 -4 -22 -6 -3 -9 -11
-6 -16 4 -5 2 -9 -4 -9 -5 0 -8 -8 -6 -17 1 -10 7 -17 13 -16 6 1 13 -4 16
-12 3 -9 -1 -15 -9 -15 -8 0 -15 -6 -15 -14 0 -20 30 -29 37 -11 5 13 7 13 18
-2 11 -14 10 -20 -4 -30 -15 -12 -15 -13 0 -7 10 3 20 1 24 -5 3 -6 1 -11 -4
-11 -6 0 -11 -9 -11 -20 0 -11 5 -20 11 -20 6 0 13 9 16 20 4 14 14 20 35 20
25 0 29 3 24 23 l-6 22 11 -22 c7 -13 16 -23 20 -23 13 0 39 30 39 45 0 8 9
17 20 20 11 3 20 11 20 17 0 6 -7 5 -17 -3 -16 -12 -17 -12 -6 2 10 12 10 18
1 27 -9 9 -9 12 -1 12 6 0 13 -5 15 -12 3 -7 12 -5 27 8 26 22 81 100 81 115
0 6 5 7 10 4 11 -7 90 70 90 87 0 5 9 4 19 -2 30 -16 34 -13 29 25 -3 22 0 35
8 35 6 0 17 7 25 16 10 13 10 17 -1 24 -12 7 -12 10 2 15 10 4 22 4 27 0 7 -4
8 0 4 11 -5 14 -3 15 13 6 13 -7 25 -7 38 0 9 5 20 7 23 4 10 -9 9 -120 0
-133 -6 -8 -5 -13 2 -13 6 0 11 5 11 10 0 6 5 10 11 10 8 0 10 -12 6 -35 -3
-21 -2 -33 4 -30 5 4 9 -1 9 -9 0 -16 -11 -20 -39 -17 -7 2 -11 -4 -9 -11 3
-7 14 -12 24 -10 17 2 17 2 2 -8 -10 -6 -15 -17 -11 -25 3 -9 1 -21 -5 -28
-21 -27 -37 -177 -18 -177 6 0 2 -7 -8 -15 -17 -13 -18 -15 -3 -15 9 0 17 -5
17 -11 0 -5 -4 -7 -10 -4 -18 11 -32 -5 -19 -21 9 -11 9 -18 1 -26 -15 -15
-16 -32 -2 -23 5 3 7 0 4 -9 -3 -8 -13 -17 -22 -21 -15 -6 -15 -8 2 -21 11 -8
14 -14 7 -14 -7 0 -9 -4 -6 -10 3 -5 1 -10 -5 -10 -6 0 -9 -4 -5 -9 3 -5 1
-12 -4 -16 -6 -3 -8 -12 -4 -20 3 -8 1 -15 -4 -15 -6 0 -10 -12 -10 -27 0 -16
-3 -43 -6 -60 -5 -21 -3 -33 3 -33 6 0 10 -6 8 -12 -1 -7 5 -26 13 -43 23 -45
30 -186 9 -193 -5 -2 -10 -11 -10 -19 0 -9 -10 -37 -21 -62 -30 -63 -37 -83
-38 -101 -1 -8 -3 -32 -4 -52 -3 -29 1 -39 14 -43 9 -3 20 -12 23 -20 3 -8 14
-15 25 -15 10 0 21 -6 24 -14 3 -7 17 -16 32 -20 31 -8 85 -54 85 -73 0 -7 5
-13 10 -13 6 0 10 -8 10 -18 0 -9 9 -34 20 -55 11 -20 20 -44 20 -52 0 -8 3
-15 8 -15 4 0 16 -17 27 -37 11 -21 27 -44 35 -51 8 -8 9 -11 3 -7 -7 3 -13 2
-13 -3 0 -12 47 -51 54 -45 5 6 11 -49 7 -70 -1 -5 3 -6 8 -3 8 5 38 -52 34
-65 -1 -4 7 -5 18 -2 12 3 24 0 29 -6 4 -7 13 -14 21 -15 8 -2 21 -6 30 -10 9
-4 32 -5 51 -3 24 3 35 0 32 -7 -2 -6 7 -11 21 -11 14 0 25 6 25 13 0 10 5 10
20 2 14 -8 20 -8 20 0 0 6 4 9 9 6 5 -4 11 -1 13 5 2 6 16 12 31 12 32 0 35 3
42 53 3 22 8 50 12 64 3 14 7 30 8 35 9 70 20 88 71 126 29 22 65 44 81 48 28
7 34 16 70 98 10 24 21 43 25 43 3 0 20 12 36 28 17 15 41 36 56 47 14 11 42
41 62 67 103 129 197 210 261 223 26 5 37 17 67 75 20 38 50 80 66 94 17 13
30 29 30 35 0 6 5 11 11 11 6 0 9 7 5 15 -6 16 9 21 19 5 8 -14 44 20 38 37
-3 7 1 20 8 29 10 13 10 17 -2 24 -11 7 -11 14 -3 27 9 14 8 23 -4 41 -10 15
-11 22 -2 22 8 0 10 11 5 38 -3 20 -7 47 -8 59 -1 12 -5 25 -9 29 -5 4 -8 36
-8 71 0 35 -4 63 -10 63 -5 0 -10 5 -10 10 0 16 22 12 35 -6 11 -16 12 -16 18
0 4 9 3 15 -2 12 -5 -3 -15 2 -22 11 -12 15 -11 16 9 11 15 -4 22 -2 22 8 0 8
4 14 9 14 13 0 32 -26 24 -33 -3 -4 15 -5 40 -2 28 3 47 1 47 -5 0 -6 3 -9 8
-9 21 4 31 -3 26 -16 -5 -11 -2 -13 12 -8 9 3 15 2 12 -3 -3 -5 1 -16 10 -24
14 -13 15 -12 9 3 -5 13 -1 17 18 17 14 0 25 -4 25 -9 0 -5 11 -8 24 -7 13 0
22 4 20 8 -2 3 11 5 29 3 45 -4 72 9 93 44 10 17 24 31 31 31 17 0 17 30 1 30
-7 0 -2 9 12 20 24 19 24 21 7 34 -18 14 -18 15 0 40 10 14 24 26 31 26 6 0
12 10 11 23 0 12 -3 16 -6 10 -2 -7 -9 -13 -14 -13 -4 0 -6 7 -3 15 8 19 28
19 48 0 8 -8 17 -15 20 -15 3 0 6 7 6 15 0 8 -7 15 -15 15 -8 0 -15 4 -15 9 0
4 -10 6 -23 4 -17 -3 -23 0 -23 14 -1 10 -3 25 -5 33 -2 9 4 16 19 18 12 2 22
-1 22 -6 0 -6 -9 -8 -20 -5 -16 4 -19 2 -14 -11 5 -12 10 -13 25 -5 13 7 26 6
40 -2 16 -8 23 -8 29 1 5 8 10 9 14 2 3 -6 2 -13 -4 -17 -5 -3 -10 -13 -10
-21 0 -11 5 -12 18 -5 9 5 22 11 27 13 6 1 9 6 8 9 -1 3 8 5 20 4 12 -1 23 -7
23 -13 1 -7 2 -16 3 -22 0 -5 10 -10 22 -10 11 0 17 -4 14 -10 -4 -6 6 -10 23
-10 16 0 32 -3 36 -7 7 -7 24 -12 66 -17 14 -2 40 -9 57 -17 25 -10 32 -18 27
-31 -7 -23 14 -90 26 -83 5 3 7 -4 5 -16 -6 -29 4 -69 17 -69 6 0 17 -8 24
-17 12 -16 15 -16 24 -3 9 13 11 13 19 1 8 -12 12 -12 25 -2 13 11 16 11 16
-3 0 -9 5 -16 11 -16 5 0 7 5 3 11 -5 8 1 10 20 7 23 -5 27 -3 23 13 -3 12 2
20 14 24 11 4 17 10 14 15 -3 5 4 14 15 20 11 6 17 16 14 22 -5 7 0 9 14 6 16
-5 20 -2 17 14 -3 12 -7 23 -10 26 -2 3 1 12 8 20 10 13 9 14 -3 7 -12 -7 -13
-6 -3 7 7 8 10 18 6 22 -4 3 7 3 24 0 22 -4 32 -2 36 10 4 9 2 16 -3 16 -6 0
-10 4 -10 8 0 11 46 32 69 32 11 0 21 6 24 14 5 13 32 17 120 17 9 0 17 4 17
10 0 5 3 8 8 7 4 0 14 1 22 5 43 17 132 37 164 37 20 0 36 4 36 9 0 5 8 8 18
7 9 -2 20 2 24 8 5 7 8 4 8 -6 0 -10 5 -18 11 -18 6 0 9 7 5 15 -7 19 17 15
25 -4 4 -11 8 -10 21 3 18 18 33 22 23 6 -9 -15 11 -12 27 3 7 8 19 12 26 9
19 -6 83 8 78 17 -8 13 36 28 74 25 192 -14 210 -14 210 2 0 8 7 23 16 31 21
22 85 53 95 48 4 -3 10 -1 14 5 7 11 43 7 73 -9 26 -14 35 -14 27 0 -4 6 2 5
14 -3 12 -7 21 -19 21 -26 0 -7 4 -11 9 -8 5 3 9 -6 9 -19 0 -14 -5 -25 -10
-25 -5 0 -6 5 -3 10 3 6 1 10 -5 10 -6 0 -13 -7 -16 -15 -4 -8 -12 -15 -20
-15 -8 0 -13 -9 -11 -22 1 -15 -4 -23 -17 -26 -27 -6 -59 -38 -51 -52 5 -8 -2
-11 -21 -9 -26 2 -93 -14 -119 -30 -5 -3 -20 -4 -33 -2 -13 1 -30 -3 -38 -9
-7 -7 -14 -8 -14 -3 0 6 -14 10 -32 11 -18 0 -27 -3 -20 -7 8 -5 7 -11 -6 -21
-22 -17 -23 -18 -99 -25 -32 -3 -69 -7 -83 -8 -14 -2 -35 -8 -46 -15 -12 -6
-23 -10 -25 -8 -2 2 -21 7 -41 10 -31 5 -38 3 -38 -10 0 -10 -6 -14 -15 -10
-8 3 -15 1 -15 -5 0 -7 -15 -9 -40 -6 -22 2 -38 1 -35 -3 7 -12 -29 -35 -50
-32 -16 3 -17 1 -5 -7 12 -9 11 -11 -7 -11 -31 0 -25 -32 11 -61 20 -16 27
-28 23 -46 -4 -20 -1 -23 17 -17 13 3 8 -2 -11 -15 -37 -23 -41 -29 -16 -27
12 1 18 -7 19 -22 1 -18 -3 -23 -17 -19 -10 3 -36 1 -56 -5 -21 -5 -55 -10
-75 -11 -21 -1 -38 -5 -38 -9 0 -5 -15 -8 -34 -8 -24 0 -42 -9 -67 -33 -32
-31 -52 -66 -29 -52 5 3 10 -3 10 -14 0 -12 -4 -21 -10 -21 -15 0 -12 -30 4
-36 15 -6 10 -34 -8 -46 -6 -4 4 -15 22 -25 18 -10 32 -23 32 -30 0 -7 6 -10
14 -7 8 3 17 0 21 -5 3 -6 11 -9 16 -6 5 4 9 1 9 -6 0 -8 4 -8 13 -1 8 7 18 7
27 2 8 -6 26 -10 39 -10 24 0 24 0 5 -16 -10 -8 -12 -12 -4 -8 10 5 9 1 -4
-14 -10 -12 -24 -18 -30 -15 -24 15 -36 12 -26 -7 14 -26 13 -30 -9 -30 -24 0
-35 -27 -16 -37 12 -7 11 -11 -5 -21 -17 -10 -20 -10 -20 3 0 8 -7 15 -16 15
-11 0 -15 -6 -11 -19 6 -25 -20 -36 -41 -19 -12 10 -14 10 -8 1 5 -9 -1 -13
-21 -13 -22 0 -25 -2 -13 -10 13 -9 13 -10 0 -11 -8 -1 -20 -1 -25 0 -6 0 -26
-13 -44 -30 -18 -16 -40 -28 -47 -25 -8 3 -14 1 -14 -5 0 -6 -4 -8 -9 -4 -5 3
-13 -4 -16 -16 -5 -16 -9 -18 -15 -9 -7 11 -12 10 -25 -3 -9 -10 -27 -17 -40
-17 -13 0 -25 -4 -27 -9 -1 -5 -10 -11 -18 -13 -20 -4 -36 -27 -44 -64 -7 -34
-19 -41 -106 -68 -38 -12 -74 -34 -114 -70 -50 -44 -60 -59 -63 -92 -2 -21
-11 -46 -19 -55 -9 -10 -14 -26 -13 -36 2 -10 0 -24 -4 -30 -5 -7 -6 -13 -2
-13 3 0 0 -10 -6 -22 -7 -12 -13 -38 -15 -58 -7 -65 -16 -105 -29 -120 -18
-21 -44 -87 -37 -94 3 -3 0 -6 -6 -6 -7 0 -11 -3 -10 -7 4 -15 -134 -214 -193
-280 -83 -91 -225 -228 -288 -278 -35 -27 -111 -90 -170 -138 -58 -49 -113
-91 -121 -95 -8 -3 -33 -20 -56 -39 -23 -18 -44 -33 -47 -33 -3 0 -32 -17 -64
-38 -32 -21 -77 -47 -100 -57 -24 -11 -46 -28 -49 -37 -3 -10 -11 -18 -19 -18
-7 0 -37 -27 -66 -61 -30 -33 -71 -79 -92 -102 -80 -89 -219 -315 -247 -402
-7 -22 -17 -46 -23 -53 -13 -17 0 -29 15 -14 7 7 20 12 30 12 10 0 18 5 18 11
0 5 4 7 10 4 5 -3 10 -2 10 4 0 5 13 12 29 16 16 3 37 15 47 26 9 10 24 19 33
19 19 0 148 71 176 97 11 10 38 31 60 47 22 17 42 33 45 36 3 4 30 25 60 48
30 22 84 64 120 92 36 28 99 77 141 109 42 32 83 63 90 69 41 34 164 125 239
175 47 31 124 83 171 114 189 127 696 441 782 484 34 18 76 42 93 55 17 13 34
24 37 24 3 0 26 14 50 30 25 17 49 30 55 30 6 0 28 15 50 32 50 41 187 128
200 128 6 0 12 4 14 8 2 5 30 23 63 42 100 56 308 182 335 202 14 11 42 32 63
48 51 39 137 117 137 125 0 3 12 17 26 30 33 31 79 118 64 123 -5 2 -7 9 -3
15 3 7 3 9 -2 5 -4 -4 -14 -3 -21 3 -19 16 -74 22 -74 9 0 -6 -5 -8 -12 -3 -7
4 -25 6 -39 5 -54 -6 -26 30 79 99 57 38 109 69 114 69 16 0 108 52 108 62 0
4 6 8 13 8 7 0 30 15 52 32 21 18 47 32 56 30 20 -3 39 25 35 53 -6 42 -106
67 -128 32 -4 -6 -10 -8 -13 -5 -4 4 -18 3 -31 -2 -14 -6 -35 -12 -47 -15 -12
-2 -40 -9 -62 -15 -22 -5 -69 -13 -105 -16 -36 -3 -74 -7 -86 -8 -11 -1 -25
-5 -31 -9 -7 -4 -14 -3 -17 2 -3 5 -25 7 -48 4 -31 -5 -39 -3 -33 6 6 10 3 11
-13 2 -16 -8 -21 -7 -26 5 -3 9 -11 14 -18 12 -15 -5 -48 22 -48 39 0 7 -4 13
-10 13 -5 0 -7 -7 -4 -15 5 -11 2 -13 -10 -9 -9 3 -19 17 -22 30 -4 14 -14 24
-25 24 -10 0 -24 9 -32 20 -8 11 -17 17 -20 13 -4 -3 -7 1 -7 9 0 9 -7 18 -15
22 -10 4 -13 14 -9 36 4 19 1 38 -10 55 -9 14 -14 25 -10 25 4 0 1 7 -6 15
-10 12 -10 15 4 15 22 0 20 8 -6 31 -15 12 -18 18 -9 19 8 0 29 11 47 25 23
17 34 21 37 12 4 -9 6 -9 6 0 1 7 7 10 15 7 8 -3 12 -12 9 -20 -3 -10 0 -12
10 -8 8 3 18 0 22 -6 6 -9 9 -9 15 1 7 10 12 10 26 -2 9 -8 18 -13 18 -11 3
10 96 -22 96 -33 0 -18 25 -26 59 -19 16 4 32 1 35 -5 4 -6 19 -11 34 -11 15
0 36 -6 47 -14 11 -7 38 -16 60 -20 50 -10 61 -16 44 -27 -11 -7 -9 -9 6 -10
11 -1 27 -1 36 0 9 1 19 -5 23 -14 3 -9 11 -13 16 -10 8 5 8 11 1 19 -8 9 -7
13 4 13 8 0 15 -4 15 -9 0 -5 5 -6 10 -3 6 3 10 -1 10 -9 0 -9 9 -16 20 -16
11 0 20 -5 20 -11 0 -5 5 -7 10 -4 15 9 51 -5 44 -17 -4 -6 -2 -8 3 -5 12 8
66 -17 57 -26 -3 -3 3 -3 15 0 12 3 21 1 21 -6 0 -6 7 -11 16 -11 10 0 14 -5
10 -15 -3 -10 -1 -15 7 -13 6 1 23 -4 37 -11 17 -10 25 -11 28 -2 7 20 20 12
15 -9 -4 -17 0 -20 24 -20 36 0 46 -9 31 -27 -9 -11 -6 -12 16 -3 15 5 25 6
22 2 -8 -13 67 -12 83 1 7 7 19 12 25 12 25 2 72 19 86 31 9 7 24 11 35 10 11
-2 25 1 32 6 7 5 16 7 21 4 5 -3 18 1 28 9 10 8 27 15 36 15 9 0 29 5 45 11
15 6 48 13 73 16 67 6 93 10 110 16 50 19 177 29 202 16 16 -8 19 -8 13 1 -5
9 -1 10 16 5 33 -10 37 -15 43 -56 4 -29 -1 -50 -25 -95 -17 -33 -42 -69 -55
-82 -14 -13 -22 -27 -19 -33 4 -5 2 -9 -4 -9 -5 0 -34 -33 -64 -72 -59 -79
-244 -268 -350 -359 -36 -31 -166 -124 -289 -205 -122 -82 -229 -153 -236
-159 -35 -27 -56 -57 -138 -192 -87 -144 -130 -196 -230 -279 -55 -47 -100
-83 -287 -227 -27 -21 -55 -43 -61 -48 -76 -61 -99 -79 -105 -79 -3 0 -18 -11
-33 -25 -14 -13 -77 -61 -140 -106 -62 -45 -115 -85 -118 -88 -3 -4 -32 -24
-65 -46 -33 -22 -64 -43 -70 -47 -44 -36 -153 -116 -177 -131 -16 -9 -41 -29
-56 -43 -15 -14 -39 -32 -54 -40 -16 -8 -28 -19 -28 -24 0 -6 -5 -10 -11 -10
-6 0 -27 -12 -47 -27 -52 -39 -174 -136 -190 -151 -8 -6 -33 -26 -58 -43 -24
-16 -56 -41 -70 -54 -15 -14 -30 -25 -34 -25 -4 0 -36 -22 -70 -50 -34 -28
-66 -50 -70 -50 -4 0 -18 -10 -31 -21 -13 -12 -47 -37 -75 -55 -29 -18 -58
-39 -65 -47 -8 -7 -34 -27 -59 -45 -25 -18 -79 -57 -120 -87 -41 -31 -87 -63
-103 -73 -15 -9 -98 -70 -185 -134 -86 -65 -162 -118 -169 -118 -6 0 -13 -4
-15 -9 -1 -4 -82 -61 -178 -126 -96 -65 -176 -122 -178 -126 -2 -5 -10 -9 -17
-9 -7 0 -15 -3 -17 -7 -1 -5 -23 -21 -47 -37 -52 -34 -66 -45 -89 -68 -9 -10
-22 -18 -29 -18 -7 0 -13 -4 -13 -8 0 -5 -15 -16 -32 -25 -29 -15 -82 -50
-113 -74 -5 -5 -35 -26 -65 -47 -30 -22 -56 -43 -58 -48 -2 -4 -8 -8 -13 -8
-10 0 -62 -35 -87 -57 -7 -7 -17 -13 -22 -13 -4 0 -33 -20 -63 -45 -31 -25
-58 -45 -61 -45 -3 0 -25 -13 -49 -30 -25 -16 -49 -30 -55 -30 -6 0 -12 -4
-14 -9 -1 -5 -9 -11 -16 -13 -17 -4 -73 -55 -72 -64 1 -4 -3 -10 -9 -13 -6 -4
-11 -21 -13 -39 -1 -18 -6 -32 -10 -32 -4 0 -8 -8 -8 -18 0 -10 -6 -24 -12
-31 -10 -11 -10 -14 -1 -18 9 -3 8 -11 -3 -29 -10 -14 -13 -31 -9 -41 11 -25
5 -107 -7 -114 -6 -4 -5 -9 3 -12 11 -4 10 -6 -2 -6 -9 -1 -16 -7 -16 -13 -1
-23 -8 -43 -18 -50 -6 -4 -2 -8 8 -8 16 0 15 -5 -9 -47 -14 -27 -30 -53 -36
-60 -6 -7 -5 -14 3 -19 8 -5 4 -13 -12 -26 -13 -10 -19 -18 -14 -17 33 5 38
-2 16 -25 -13 -14 -20 -29 -17 -35 4 -5 2 -12 -4 -16 -13 -8 -13 -42 -1 -47
14 -5 25 -58 12 -58 -6 0 -8 -7 -5 -15 7 -18 -17 -20 -34 -3 -7 7 -12 8 -12 3
0 -6 -5 -3 -10 5 -8 12 -10 11 -7 -5 4 -33 18 -47 41 -41 19 5 19 4 4 -8 -10
-7 -15 -16 -11 -19 3 -4 1 -7 -5 -7 -7 0 -12 5 -12 10 0 6 -7 10 -15 10 -8 0
-17 11 -21 25 -3 14 -10 25 -16 25 -5 0 -7 -4 -3 -9 3 -5 1 -12 -5 -16 -5 -3
-10 -1 -10 4 0 6 -7 11 -16 11 -8 0 -12 5 -9 10 4 6 11 8 16 5 5 -4 9 -1 9 4
0 6 -5 11 -11 11 -8 0 -7 5 1 15 7 9 11 17 9 18 -2 1 -17 9 -32 17 -15 7 -26
19 -23 27 6 15 -9 25 -38 27 -14 1 -20 7 -18 19 2 13 -4 17 -25 17 -38 1 -66
23 -51 38 9 9 9 12 -1 12 -7 0 -10 4 -7 8 3 5 -3 14 -14 22 -10 7 -16 19 -13
27 4 9 -3 12 -21 11 -14 -1 -26 -7 -26 -12 0 -5 -6 -2 -13 8 -7 10 -20 17 -28
16 -35 -5 -58 1 -62 18 -4 16 -5 16 -6 0 -1 -12 -6 -15 -18 -11 -13 5 -15 3
-9 -12 4 -11 4 -16 0 -12 -4 4 -13 2 -21 -5 -11 -9 -12 -7 -6 8 6 17 5 17 -10
5 -9 -7 -17 -20 -17 -28 0 -12 -3 -13 -13 -4 -17 13 -27 5 -27 -24 0 -18 -4
-21 -25 -17 -20 3 -25 0 -25 -17 0 -11 6 -21 13 -22 6 0 2 -5 -10 -11 -13 -6
-23 -17 -23 -23 0 -7 -7 -16 -16 -19 -12 -5 -14 -9 -5 -20 8 -10 8 -16 -4 -26
-8 -7 -12 -16 -9 -21 3 -5 0 -9 -5 -9 -14 0 -14 -56 0 -82 6 -11 13 -43 15
-70 1 -27 8 -55 13 -62 7 -9 7 -16 -1 -24 -9 -9 -9 -12 1 -12 11 0 11 -3 1
-15 -10 -13 -9 -15 9 -15 11 0 22 -6 22 -12 1 -7 2 -17 3 -23 2 -14 43 -54 49
-48 3 3 3 -4 0 -15 -3 -14 2 -24 17 -32 12 -6 19 -18 16 -25 -3 -8 8 -27 24
-43 16 -16 26 -33 22 -37 -4 -3 1 -12 10 -19 9 -7 20 -28 23 -47 3 -19 10 -36
16 -37 5 -2 7 -8 4 -13 -3 -4 1 -19 10 -33 9 -13 18 -53 21 -88 7 -91 9 -102
18 -116 8 -14 -3 -136 -14 -149 -2 -2 -3 -6 -5 -10 -14 -52 -20 -63 -36 -68
-10 -4 -19 -12 -19 -20 0 -7 -11 -22 -25 -33 -14 -11 -25 -25 -25 -31 0 -6 -9
-11 -20 -11 -11 0 -20 -4 -20 -10 0 -6 436 -10 1250 -10 716 0 1250 4 1250 9
0 5 14 11 32 15 17 3 28 9 25 13 -4 3 2 12 13 20 11 8 20 20 20 28 0 7 13 26
29 41 17 15 27 32 24 38 -4 5 0 7 9 4 11 -5 14 1 13 23 -1 16 2 29 6 29 4 0
20 5 36 12 15 7 33 13 38 14 6 1 12 3 15 4 3 1 18 4 35 6 16 3 33 12 38 19 4
8 13 12 21 9 7 -3 18 2 25 10 7 8 19 12 27 9 8 -3 20 0 28 6 7 6 16 8 20 4 4
-4 10 -2 14 4 4 6 16 13 27 15 11 1 22 6 25 10 3 4 33 8 68 9 34 1 62 5 62 9
0 4 16 7 36 8 20 1 39 3 41 6 2 2 20 0 39 -4 20 -5 34 -4 34 1 0 6 17 9 38 9
168 -3 282 2 282 13 0 8 3 9 8 1 9 -14 134 -13 144 1 5 7 8 7 8 0 0 -11 46
-13 56 -2 4 3 15 2 25 -4 11 -6 19 -6 19 0 0 5 28 8 63 6 34 -1 62 -3 62 -4 0
-1 12 -4 28 -6 15 -2 27 1 27 6 0 5 9 9 20 9 11 0 20 -6 20 -12 0 -9 4 -8 10
2 9 13 11 13 20 0 5 -8 10 -10 10 -5 0 7 49 9 138 7 75 -2 145 -3 155 -3 9 1
27 1 40 1 12 1 33 1 47 0 14 0 58 2 98 4 46 4 72 2 72 -5 0 -6 5 -7 13 -2 6 4
35 9 62 10 126 5 189 13 195 24 5 7 24 10 49 7 22 -2 41 0 41 5 0 5 9 7 20 4
10 -3 27 1 36 7 11 8 30 10 55 6 21 -4 44 -3 51 1 20 13 68 10 74 -4 2 -7 21
-14 41 -15 20 -2 41 -6 47 -10 14 -8 30 -9 83 -1 27 4 44 2 46 -5 3 -8 9 -7
18 2 7 6 23 12 36 12 14 0 23 6 23 15 0 9 7 18 15 22 18 6 89 107 99 141 4 12
12 22 17 22 5 0 9 7 9 17 0 19 26 112 46 163 7 19 15 49 18 67 2 17 7 36 10
41 5 9 41 143 98 367 11 44 22 97 25 118 3 20 9 40 14 43 5 3 9 18 9 33 0 16
7 44 15 64 8 19 17 49 20 67 3 18 12 46 19 64 7 17 16 48 20 68 4 21 11 38 16
38 6 0 10 10 10 23 0 13 4 27 9 32 5 6 16 34 26 62 16 50 120 252 135 263 4 3
44 79 89 170 45 91 95 188 111 215 16 28 38 69 49 92 12 23 25 44 30 47 5 3
26 40 46 81 21 41 42 75 47 75 5 0 6 4 3 10 -3 5 -2 10 4 10 6 0 14 12 17 28
4 15 13 36 21 48 7 11 10 24 6 28 -4 4 -3 10 3 14 6 4 21 27 33 52 13 25 34
65 48 90 14 25 42 78 63 117 21 40 47 85 58 100 10 16 22 36 25 46 6 17 40 71
104 168 12 19 23 38 23 42 0 7 194 307 231 357 10 14 30 45 45 70 15 25 30 47
33 50 4 3 22 31 41 63 19 31 38 57 42 57 4 0 8 5 8 10 0 6 18 35 40 65 22 30
40 57 40 60 0 4 16 26 35 49 19 24 35 48 35 54 0 6 14 26 30 44 17 18 30 38
30 45 0 7 9 23 20 35 12 13 27 30 35 39 8 9 15 23 15 32 0 10 4 17 10 17 5 0
13 12 16 27 4 16 18 38 31 50 12 12 23 31 23 43 0 11 4 20 9 20 5 0 13 12 19
28 5 15 25 48 45 74 19 25 34 48 31 50 -2 3 5 13 16 23 11 10 20 25 20 34 0
15 27 50 89 116 15 17 33 40 40 52 7 14 17 20 27 16 10 -4 17 2 21 16 5 21 6
21 26 4 20 -17 20 -17 15 4 -4 13 -1 24 8 27 8 3 14 -1 14 -10 0 -10 6 -14 15
-11 8 4 17 2 20 -4 4 -5 -1 -12 -10 -15 -14 -6 -14 -9 0 -30 9 -14 11 -24 5
-24 -6 0 -9 -4 -6 -9 4 -5 1 -11 -6 -13 -7 -3 -8 -9 -3 -19 11 -16 7 -49 -7
-66 -6 -7 -7 -13 -4 -13 4 0 0 -10 -8 -22 -9 -12 -16 -30 -16 -38 0 -20 -23
-70 -32 -70 -4 0 -5 -9 -3 -19 2 -11 -9 -39 -23 -63 -25 -40 -34 -57 -67 -133
-8 -16 -30 -65 -49 -107 -20 -43 -36 -79 -36 -82 0 -2 -19 -44 -42 -93 -23
-48 -41 -91 -40 -96 1 -4 -2 -7 -8 -7 -5 0 -15 -18 -21 -40 -7 -22 -16 -40
-21 -40 -4 0 -8 -9 -8 -20 0 -11 -5 -20 -12 -20 -6 0 -8 -3 -5 -7 4 -3 1 -13
-7 -22 -7 -9 -21 -38 -31 -66 -10 -27 -24 -57 -30 -65 -6 -8 -25 -42 -40 -75
-16 -33 -40 -74 -52 -91 -13 -17 -20 -34 -16 -37 3 -4 1 -7 -5 -7 -5 0 -18
-20 -28 -45 -9 -25 -20 -45 -23 -45 -4 0 -13 -17 -20 -37 -8 -21 -22 -50 -32
-65 -11 -14 -19 -31 -19 -37 0 -6 -4 -11 -8 -11 -4 0 -13 -12 -20 -27 -6 -16
-23 -46 -36 -68 -14 -22 -30 -51 -36 -64 -6 -13 -19 -35 -29 -50 -10 -14 -31
-51 -47 -81 -16 -30 -31 -57 -34 -60 -5 -5 -48 -84 -74 -137 -6 -13 -14 -23
-18 -23 -3 0 -12 -16 -18 -35 -6 -19 -15 -35 -18 -35 -4 0 -23 -30 -42 -68
-19 -37 -38 -69 -41 -72 -3 -3 -16 -27 -28 -55 -13 -27 -27 -57 -32 -65 -5 -8
-13 -25 -19 -38 -5 -12 -19 -35 -31 -51 -12 -16 -19 -34 -15 -39 3 -6 3 -12
-1 -14 -5 -1 -25 -37 -46 -78 -21 -41 -42 -82 -46 -90 -11 -18 -75 -170 -78
-184 -1 -6 -5 -22 -8 -36 -3 -14 -7 -34 -9 -45 -2 -11 -7 -42 -11 -70 -5 -27
-9 -59 -9 -70 -1 -11 -6 -27 -11 -35 -13 -20 -46 -144 -52 -198 -3 -23 -9 -42
-14 -42 -5 0 -9 -6 -9 -13 0 -7 -9 -29 -20 -50 -11 -20 -20 -44 -20 -53 0 -9
-5 -12 -12 -8 -8 5 -9 2 -5 -9 3 -9 2 -19 -4 -22 -5 -4 -7 -11 -4 -16 4 -5 1
-9 -5 -9 -6 0 -25 -30 -42 -67 -17 -38 -34 -70 -38 -73 -4 -3 -11 -16 -15 -30
-4 -14 -15 -36 -25 -50 -9 -14 -25 -42 -35 -63 -9 -20 -21 -37 -25 -37 -4 0
-10 -8 -14 -18 -3 -9 -17 -35 -31 -57 -14 -22 -28 -48 -32 -57 -3 -10 -10 -18
-15 -18 -5 0 -6 -5 -3 -10 3 -6 -1 -13 -9 -16 -9 -3 -21 -24 -27 -45 -7 -21
-16 -39 -21 -39 -4 0 -8 -6 -8 -14 0 -7 -6 -19 -14 -25 -17 -14 -96 -175 -96
-195 0 -8 -5 -18 -10 -21 -6 -4 -8 -15 -5 -26 4 -10 2 -19 -3 -19 -10 0 -23
-54 -24 -107 -1 -18 -5 -33 -9 -33 -10 0 -23 -49 -25 -100 -1 -25 -5 -56 -9
-70 -4 -14 -8 -46 -9 -71 -2 -25 -6 -52 -11 -59 -6 -10 -4 -12 8 -7 13 5 17 0
17 -20 0 -15 8 -35 18 -46 9 -11 11 -17 5 -13 -9 5 -11 2 -7 -8 3 -9 10 -16
14 -16 8 0 24 -34 25 -55 1 -5 6 -20 13 -32 12 -22 14 -22 282 -22 l269 0 17
27 c24 37 40 52 48 45 6 -6 9 11 9 50 0 9 5 17 12 17 11 0 13 6 17 50 2 20 6
22 46 23 12 0 22 6 22 13 0 8 4 14 9 14 5 0 12 10 15 23 8 30 51 59 89 61 19
2 31 7 30 14 -5 19 16 14 29 -8 13 -21 38 -27 38 -11 0 19 58 -10 63 -31 4
-13 11 -19 20 -15 10 4 13 0 10 -12 -5 -22 28 -53 35 -33 3 10 8 9 23 -4 17
-15 19 -15 25 0 4 12 13 14 33 9 24 -6 25 -5 11 12 -14 17 -14 17 19 1 18 -10
30 -13 26 -6 -7 11 42 7 54 -5 11 -12 3 -115 -11 -132 -11 -14 -11 -16 2 -8
12 7 13 6 4 -6 -9 -10 -9 -23 0 -49 l11 -35 244 -3 c215 -3 245 -1 261 13 10
9 16 23 13 32 -4 11 1 13 23 11 20 -2 29 2 30 12 1 8 2 21 3 29 1 8 8 11 21 8
17 -4 19 -1 15 23 -4 22 -1 30 14 35 10 3 24 3 32 1 18 -7 53 20 44 34 -3 6
-3 9 2 8 11 -4 63 43 63 56 0 6 12 20 27 31 37 27 63 54 158 170 36 44 37 44
119 123 36 35 66 65 66 68 0 13 208 224 221 224 5 0 15 10 23 21 18 27 278
303 466 496 33 34 60 66 60 72 0 6 6 11 14 11 12 0 30 39 22 48 -7 6 -106 -53
-106 -63 0 -5 -15 -20 -33 -32 -46 -32 -97 -80 -97 -92 0 -6 -5 -11 -11 -11
-6 0 -57 -46 -114 -103 -166 -164 -244 -237 -254 -237 -6 0 -15 -9 -21 -21
-18 -33 -43 -59 -57 -59 -7 0 -13 -3 -13 -7 0 -8 -58 -78 -80 -98 -6 -5 -19
-18 -28 -29 -47 -52 -72 -76 -80 -76 -4 0 -14 -17 -21 -37 -8 -21 -31 -58 -52
-83 -21 -25 -34 -46 -29 -48 17 -6 11 -26 -20 -61 -17 -18 -30 -31 -30 -27 0
4 -9 2 -21 -4 -11 -7 -19 -14 -16 -16 9 -9 -42 -56 -53 -49 -6 4 -20 -2 -31
-14 -11 -12 -24 -21 -30 -21 -6 0 -8 -4 -5 -9 3 -4 -6 -7 -19 -5 -14 1 -27 -2
-31 -7 -3 -5 0 -9 7 -9 8 0 5 -8 -6 -20 -13 -14 -22 -17 -30 -10 -9 7 -16 6
-24 -4 -10 -12 -9 -14 7 -9 12 3 22 -2 26 -12 5 -14 2 -16 -19 -13 -13 3 -22
1 -19 -3 3 -5 13 -9 22 -9 12 0 10 -4 -8 -17 -14 -10 -28 -17 -31 -16 -4 1
-10 -9 -13 -22 -6 -24 -26 -36 -26 -16 0 10 -65 -53 -74 -72 -4 -6 -4 -2 -2
10 3 14 -1 23 -9 23 -13 0 -30 -28 -26 -43 1 -5 -3 -6 -9 -2 -6 3 -8 10 -5 15
3 4 -7 17 -21 28 -22 16 -25 22 -16 38 10 16 11 17 12 2 0 -9 4 -19 9 -22 10
-7 9 49 -2 60 -4 4 -2 13 4 20 7 8 6 14 -2 20 -7 4 -9 3 -6 -3 4 -6 0 -14 -9
-17 -23 -9 -31 -7 -14 4 12 7 12 12 2 22 -16 16 -15 29 2 22 10 -4 12 4 9 33
-3 33 2 44 34 79 46 49 62 80 65 116 1 16 6 28 10 28 9 0 19 32 23 75 4 46 70
166 147 270 5 6 32 42 61 80 29 39 58 81 65 95 26 55 121 190 133 190 5 0 9
11 9 25 0 16 6 25 15 25 8 0 15 5 15 11 0 6 25 36 55 65 30 30 55 58 55 63 0
5 3 11 8 13 4 1 23 23 42 48 34 44 170 182 286 290 32 30 58 58 56 63 -1 4 8
11 20 16 13 5 42 26 64 48 61 56 121 103 133 103 6 0 11 5 11 10 0 6 5 10 11
10 11 0 58 39 93 79 11 13 34 36 50 50 16 14 39 37 50 50 12 13 36 38 55 55
19 17 41 39 50 50 9 10 73 77 144 148 70 72 127 132 127 134 0 2 10 14 23 28
45 49 76 95 117 176 19 36 41 76 50 90 9 14 27 53 39 88 21 60 103 206 169
303 18 26 32 53 32 60 0 8 11 32 23 55 14 24 23 55 23 77 -1 20 2 37 7 37 4 0
7 6 5 13 -4 16 43 127 53 127 5 0 6 7 3 15 -4 8 -1 15 5 15 6 0 11 8 11 18 0
11 9 27 20 37 11 10 20 24 20 31 0 7 6 17 14 21 8 4 15 12 15 16 0 15 26 67
33 67 5 0 8 5 8 10 0 6 12 23 26 38 14 15 54 64 89 109 71 90 429 462 585 608
38 35 111 53 140 35 8 -5 11 -10 6 -10 -5 0 -4 -6 1 -12 6 -7 9 -31 8 -53 -3
-53 -4 -57 -12 -52 -5 3 -9 -6 -10 -20 0 -14 -5 -28 -10 -32 -16 -11 -107
-155 -110 -173 -2 -10 -12 -35 -23 -55 -11 -21 -20 -45 -20 -54 0 -9 -7 -19
-15 -23 -8 -3 -15 -14 -15 -24 0 -11 -9 -31 -20 -45 -11 -14 -20 -29 -20 -34
0 -4 -11 -30 -25 -58 -13 -27 -25 -56 -25 -63 0 -8 -8 -26 -19 -40 -46 -65
-103 -222 -80 -222 4 0 6 -7 3 -15 -4 -8 -2 -15 3 -15 15 0 8 -46 -12 -77 -18
-27 -31 -128 -16 -119 4 3 19 -1 34 -9 15 -8 27 -10 27 -5 0 4 10 10 23 14 29
7 137 112 137 134 0 12 148 162 161 162 6 0 19 8 28 18 9 9 25 19 36 20 11 2
22 7 25 11 9 13 71 40 63 28 -4 -6 6 -1 22 11 17 13 31 19 33 13 3 -8 9 -8 24
0 11 6 26 8 33 5 8 -3 17 -1 20 5 4 5 10 7 15 4 5 -3 31 4 59 15 28 11 51 18
51 15 0 -3 9 3 20 12 11 10 20 23 20 30 0 7 7 10 15 7 9 -4 15 0 15 10 0 27 1
31 15 46 7 8 16 26 20 40 4 14 13 28 19 32 6 4 11 11 11 16 0 5 8 16 18 26 16
16 21 30 18 48 0 5 5 8 12 8 7 0 26 13 42 30 16 16 25 30 21 30 -12 0 68 65
119 97 25 15 62 43 82 61 20 17 43 32 50 32 7 0 13 5 13 10 0 6 5 10 11 10 6
0 17 6 24 12 28 25 40 33 55 35 30 4 90 28 90 36 0 5 4 6 10 2 12 -8 110 48
140 80 13 14 28 25 33 25 14 0 96 63 97 74 0 4 30 36 66 70 37 33 107 100 156
148 49 48 97 90 106 93 9 3 25 17 34 32 9 16 42 64 72 107 31 44 56 87 56 96
0 21 49 123 64 132 6 4 8 8 4 8 -4 0 11 35 33 77 21 43 39 85 39 95 0 9 4 19
9 22 5 3 8 17 8 32 0 14 7 30 14 35 12 7 14 160 17 924 l2 917 -30 -22 c-16
-12 -35 -30 -40 -41 -6 -10 -17 -19 -24 -19 -7 0 -25 -22 -40 -50 -15 -27 -31
-52 -36 -55 -6 -4 -10 -15 -10 -26 0 -10 -5 -19 -10 -19 -6 0 -18 -16 -27 -35
-9 -19 -20 -35 -24 -35 -4 0 -21 -22 -38 -49 -17 -27 -40 -59 -51 -71 -11 -13
-20 -26 -20 -29 0 -3 -14 -22 -31 -41 -35 -41 -51 -60 -150 -195 -81 -111 -78
-107 -114 -151 -14 -18 -25 -35 -25 -39 0 -4 -16 -26 -35 -49 -19 -24 -35 -47
-35 -51 0 -4 -8 -15 -18 -24 -9 -9 -28 -33 -42 -53 -14 -21 -28 -38 -32 -38
-5 0 -8 -5 -8 -10 0 -6 -21 -33 -47 -61 -81 -86 -83 -89 -83 -98 0 -5 -8 -12
-18 -15 -11 -4 -25 -18 -32 -31 -7 -14 -20 -25 -27 -25 -8 0 -12 -4 -9 -9 7
-11 -85 -61 -113 -61 -24 0 -25 4 -10 31 7 14 7 29 0 50 -6 18 -6 29 0 29 5 0
9 9 9 20 0 11 5 20 11 20 5 0 8 4 5 9 -3 5 8 34 24 65 17 30 30 61 30 67 0 7
12 27 26 46 14 19 27 40 28 47 2 15 43 71 82 113 13 14 24 31 24 37 0 6 9 17
20 24 11 7 20 18 20 26 0 7 9 16 21 19 12 3 18 10 15 15 -3 5 5 19 17 30 41
40 54 57 76 99 12 24 26 43 31 43 5 0 11 8 14 18 4 9 20 32 36 51 17 19 38 50
47 68 8 18 19 33 24 33 5 0 9 5 9 11 0 7 13 25 30 40 16 16 27 29 24 29 -4 0
11 20 32 43 22 24 55 63 74 86 50 59 59 70 74 78 7 5 29 30 49 57 20 27 37 43
38 35 0 -11 2 -11 7 1 12 26 55 70 69 70 7 0 13 4 13 9 0 14 62 71 77 71 6 0
15 13 21 28 5 15 24 39 42 52 17 14 38 31 46 38 12 11 14 239 14 1553 l0 1539
-9600 0 -9600 0 0 -1951z m7523 1806 c18 -13 16 -15 -22 -34 -22 -12 -44 -27
-48 -33 -8 -13 -16 -18 -106 -67 -29 -15 -76 -43 -105 -61 -59 -36 -94 -47
-197 -62 -38 -5 -78 -17 -87 -26 -10 -8 -18 -12 -18 -8 0 4 -10 1 -22 -6 -13
-6 -32 -13 -43 -15 -11 -2 -27 -6 -35 -10 -8 -3 -24 -5 -35 -4 -17 2 -18 0 -5
-9 12 -10 11 -11 -7 -7 -16 4 -24 -1 -28 -14 -9 -27 -22 -23 -22 6 0 22 5 26
41 32 22 3 35 8 28 11 -8 2 1 11 20 22 18 10 36 16 41 13 4 -2 7 1 7 6 0 6 9
11 21 11 13 0 18 4 13 12 -5 8 -2 9 9 5 10 -3 17 -3 17 2 0 5 8 11 18 14 9 3
40 20 67 36 28 17 66 38 85 47 139 67 178 84 188 84 7 0 12 4 12 9 0 5 17 15
38 21 20 6 46 15 57 20 55 23 92 25 118 5z m321 -16 c-3 -5 4 -9 16 -9 17 0
20 -4 15 -22 -4 -13 -20 -35 -36 -50 -16 -15 -29 -32 -29 -36 0 -11 -109 -60
-151 -67 -18 -3 -35 -8 -39 -10 -4 -2 -34 -8 -68 -14 -50 -8 -71 -7 -109 6
-27 9 -52 20 -58 25 -14 13 86 104 123 113 18 3 32 11 32 15 0 5 17 12 38 15
20 3 64 12 97 20 33 7 77 13 99 12 22 -2 40 3 43 10 3 6 11 9 19 6 8 -3 11 -9
8 -14z m-1694 -624 c0 -8 -6 -15 -14 -15 -8 0 -21 -7 -29 -14 -8 -8 -26 -17
-40 -18 -14 -2 -35 -12 -46 -22 -12 -11 -21 -16 -21 -12 0 3 -11 -1 -25 -10
-14 -9 -31 -14 -39 -11 -8 3 -16 -2 -19 -14 -3 -11 -14 -19 -26 -19 -12 0 -21
-4 -21 -10 0 -5 -7 -10 -16 -10 -9 0 -38 -16 -64 -35 -26 -19 -52 -35 -57 -35
-9 0 -72 -31 -173 -87 -30 -16 -100 -54 -155 -83 -55 -29 -112 -61 -127 -71
-14 -11 -34 -19 -43 -19 -10 0 -33 -10 -52 -21 -19 -12 -37 -19 -40 -15 -3 3
-16 -3 -29 -13 -15 -12 -33 -17 -49 -13 l-26 5 33 28 c18 16 47 37 63 46 17 8
32 19 35 23 3 4 19 15 37 24 18 9 51 29 75 45 24 16 140 78 258 138 118 61
244 126 280 145 83 46 112 55 104 34 -8 -22 15 -20 46 4 14 11 30 20 36 20 7
0 25 7 40 15 16 8 42 15 57 15 16 0 26 4 22 10 -3 6 1 10 9 10 9 0 16 -7 16
-15z m1483 -1061 c-3 -8 -9 -12 -13 -9 -12 7 -23 -13 -25 -46 -2 -15 -10 -36
-19 -45 -10 -9 -15 -23 -12 -30 3 -7 1 -16 -5 -20 -6 -3 -21 -30 -33 -59 -13
-29 -28 -55 -34 -59 -6 -3 -16 -23 -22 -42 -7 -20 -18 -44 -26 -53 -50 -60
-75 -97 -80 -115 -3 -12 -18 -30 -34 -41 -16 -11 -32 -30 -35 -42 -7 -30 -57
-57 -75 -40 -10 10 -12 8 -7 -5 4 -10 3 -18 -2 -18 -14 0 -22 48 -15 85 4 22
13 35 27 39 17 4 18 8 8 20 -10 12 -8 19 8 35 12 12 21 26 21 31 0 6 7 13 15
16 8 4 15 11 15 16 0 16 82 128 133 181 24 26 42 47 40 47 -3 0 14 19 36 42
23 22 41 44 41 48 0 3 14 22 30 40 17 18 30 37 30 41 0 4 9 5 19 2 12 -3 17
-11 14 -19z m6243 -1316 c4 -6 2 -14 -4 -16 -7 -2 -12 -12 -12 -23 0 -10 -7
-19 -15 -19 -8 0 -15 -5 -15 -11 0 -6 -8 -8 -19 -4 -12 3 -21 0 -25 -11 -4
-10 -12 -14 -23 -10 -10 4 -14 4 -11 0 13 -12 -92 -94 -105 -82 -1 2 -15 -7
-30 -19 -16 -12 -34 -20 -42 -17 -8 3 -19 -3 -26 -14 -7 -11 -18 -18 -24 -15
-7 2 -19 -3 -27 -11 -9 -8 -24 -14 -34 -14 -31 2 -124 -23 -119 -33 5 -7 -17
-15 -93 -32 -19 -5 -21 -3 -11 9 6 8 18 14 25 14 8 0 14 4 14 9 0 5 6 8 14 7
8 0 15 4 16 9 2 13 42 35 52 29 5 -3 8 0 8 5 0 6 6 11 14 11 7 0 20 7 27 17 8
9 33 25 57 35 23 10 42 23 42 28 0 6 6 10 12 10 16 0 122 53 126 63 2 4 9 7
15 7 16 0 101 42 109 54 4 6 24 16 45 22 51 16 51 16 59 2z m-5801 -264 l-20
-15 20 -12 c11 -7 29 -14 39 -17 13 -4 20 -15 21 -35 0 -16 6 -30 13 -33 7 -2
10 -8 6 -13 -6 -10 7 -16 46 -23 37 -7 37 -7 10 -16 -25 -8 -25 -8 -2 -9 22
-1 52 -22 52 -35 0 -3 -8 -7 -17 -7 -16 -1 -17 -2 -1 -6 11 -3 15 -10 11 -20
-4 -11 -2 -14 5 -9 7 4 12 1 12 -8 0 -9 -6 -16 -12 -17 -10 0 -10 -2 0 -6 10
-4 10 -8 1 -19 -9 -11 -7 -14 12 -15 20 -1 16 -4 -18 -20 -24 -11 -43 -24 -43
-29 0 -6 -10 -10 -23 -10 -12 0 -32 -6 -43 -14 -11 -8 -37 -17 -57 -21 -20 -4
-34 -11 -31 -16 3 -5 0 -9 -7 -9 -7 0 -31 -9 -53 -19 -49 -23 -164 -61 -184
-61 -7 0 -11 4 -7 9 3 5 1 12 -5 16 -16 10 -2 25 18 19 13 -5 14 -4 3 4 -7 5
-10 16 -7 23 4 8 1 6 -7 -4 -15 -18 -16 -18 -26 2 -6 11 -7 22 -2 25 5 3 11
17 13 31 3 13 2 22 -3 20 -4 -3 -10 1 -12 7 -3 7 -3 -3 -1 -22 l5 -35 -17 30
c-9 17 -22 33 -28 38 -7 5 -1 16 17 32 15 14 24 25 18 25 -5 0 -13 9 -16 20
-7 24 12 53 28 43 5 -3 7 -1 3 5 -3 5 -1 12 6 14 6 2 8 10 4 16 -11 18 -24 15
-22 -5 0 -10 -3 -18 -9 -18 -5 0 -15 -3 -20 -7 -6 -4 -11 2 -11 13 0 10 5 19
10 19 5 0 6 3 3 7 -11 10 14 33 37 33 17 0 19 -2 6 -11 -13 -9 -13 -10 0 -6 8
2 15 9 15 15 0 16 12 25 25 17 9 -6 9 -10 -1 -16 -11 -7 -11 -9 2 -9 9 0 24
-11 33 -25 9 -14 22 -25 29 -25 8 0 7 4 -3 10 -12 8 -11 10 7 10 12 0 33 -4
47 -10 17 -6 26 -6 26 0 0 6 -5 10 -11 10 -8 0 -8 4 0 14 7 9 8 17 3 20 -6 3
-12 -1 -16 -9 -6 -17 -36 -20 -36 -4 0 6 7 9 14 6 10 -4 13 -1 10 8 -4 10 0
13 17 10 12 -3 28 0 35 6 8 7 14 7 19 -1 9 -14 45 -13 46 3 0 6 4 3 9 -8 8
-19 9 -19 9 3 1 12 -4 22 -10 22 -7 0 -18 8 -25 17 -7 10 -16 15 -20 11 -4 -4
-1 -14 5 -22 9 -11 9 -16 0 -22 -8 -5 -9 -3 -4 6 6 10 3 12 -13 8 -12 -4 -25
-2 -28 3 -3 5 0 9 5 9 6 0 10 3 10 8 -4 22 3 30 24 26 12 -2 16 -2 10 2 -10 4
-9 10 3 22 15 14 14 16 -6 24 -19 7 -20 10 -6 23 8 8 19 15 25 15 6 0 11 6 11
13 0 8 4 7 10 -3 8 -13 10 -12 10 5 0 15 2 17 13 6 10 -10 8 -15 -8 -27z
m3328 -123 c5 -1 5 -6 1 -13 -4 -6 -3 -8 4 -4 6 3 13 2 17 -4 3 -5 11 -10 17
-10 6 0 3 9 -7 20 -10 11 -13 20 -7 20 7 0 12 -4 12 -10 0 -5 6 -10 14 -10 18
0 29 -29 16 -45 -5 -6 -7 -15 -3 -19 4 -4 -3 -16 -17 -26 -15 -12 -19 -20 -11
-20 8 0 12 -3 8 -6 -3 -4 -18 3 -34 15 l-27 22 -8 -20 c-7 -19 -24 -26 -55
-22 -7 1 -13 -5 -13 -14 0 -14 -22 -20 -63 -17 -10 1 -16 -2 -13 -7 4 -5 -12
-12 -34 -16 -23 -4 -37 -11 -34 -17 4 -6 -4 -9 -17 -7 -13 2 -33 -2 -44 -8
-11 -6 -26 -8 -32 -6 -7 3 -13 0 -13 -7 0 -6 -5 -8 -11 -5 -6 4 -8 13 -5 21 3
8 -1 14 -9 14 -22 0 -6 29 25 45 16 8 34 28 41 44 8 17 24 33 37 36 18 4 23
11 19 25 -4 15 0 20 14 20 11 0 19 7 19 18 0 13 2 14 9 4 6 -10 10 -10 20 2
10 12 31 15 94 12 45 -2 86 -4 90 -5z"/>
<path d="M6816 5085 c-3 -8 -10 -14 -15 -13 -18 5 -85 -77 -117 -143 -17 -35
-37 -86 -43 -114 -7 -27 -23 -99 -37 -160 -14 -60 -29 -126 -33 -145 -9 -41
-77 -172 -103 -200 -10 -10 -18 -24 -18 -29 0 -5 -23 -33 -51 -63 -28 -29 -48
-47 -43 -39 5 11 3 13 -10 8 -10 -4 -26 -2 -37 3 -15 8 -21 7 -25 -4 -5 -12
-10 -13 -31 -3 -23 10 -28 8 -50 -17 -18 -21 -21 -31 -13 -41 8 -10 7 -16 -7
-24 -17 -10 -17 -10 2 -11 18 0 17 -2 -4 -13 -13 -6 -25 -20 -27 -30 -1 -9 2
-15 7 -11 17 10 31 -7 18 -22 -10 -12 -8 -16 10 -21 20 -5 20 -6 4 -18 -15
-11 -15 -13 6 -20 20 -6 22 -12 17 -40 -4 -18 -3 -36 2 -39 6 -3 6 -23 1 -48
-5 -24 -13 -65 -18 -93 -6 -27 -19 -75 -30 -105 l-19 -54 36 -17 c36 -16 38
-16 54 5 9 11 25 21 35 21 11 0 19 9 21 23 2 12 11 23 20 23 35 3 57 -3 68
-17 6 -8 16 -14 23 -14 6 0 11 -9 11 -21 0 -11 4 -18 9 -14 6 3 8 23 5 45 -4
31 -1 42 11 46 9 4 14 13 11 20 -3 8 -1 14 5 14 6 0 7 5 4 10 -3 6 -2 10 3 10
5 0 20 16 33 35 14 20 30 33 37 30 8 -3 28 11 45 30 17 19 36 35 43 35 6 0 28
15 47 33 20 18 48 42 62 54 35 27 53 107 30 129 -8 9 -18 13 -23 11 -20 -13
-42 23 -46 76 -2 30 -7 60 -11 66 -4 7 -1 10 7 9 7 -2 12 3 11 10 -2 6 2 12 8
12 23 0 1 25 -25 27 -17 1 -24 -2 -20 -9 4 -6 3 -8 -3 -5 -12 8 -24 57 -14 57
4 0 16 -7 28 -15 19 -13 22 -13 27 1 3 9 2 12 -5 9 -6 -4 -19 1 -30 11 -22 20
-26 42 -4 24 13 -10 15 -9 15 10 0 14 -5 20 -13 17 -8 -3 -14 3 -14 14 -1 10
2 19 8 19 5 0 9 9 9 20 0 11 5 20 10 20 6 0 10 8 10 18 0 11 11 24 25 30 36
16 38 15 31 -12 -7 -27 1 -56 16 -56 5 0 6 5 2 12 -4 6 3 4 16 -5 28 -19 50
-7 50 28 0 25 34 60 49 50 6 -3 11 1 11 9 0 9 5 16 11 16 5 0 8 -4 5 -8 -3 -5
8 -6 25 -4 16 2 29 7 29 11 0 3 21 6 47 6 44 0 49 3 76 42 15 24 29 55 30 70
1 16 6 31 11 35 6 4 5 12 -3 21 -9 12 -9 16 1 19 10 4 11 8 1 20 -7 8 -11 17
-8 20 3 2 -6 10 -18 17 -18 10 -23 19 -19 37 4 25 -35 114 -51 114 -5 0 -6 4
-3 9 6 9 -10 26 -29 33 -5 1 -9 7 -7 11 1 5 -2 6 -8 2 -5 -3 -10 -1 -10 5 0 6
-5 8 -11 4 -6 -3 -8 -15 -6 -26 5 -19 4 -18 -20 3 -14 13 -34 42 -45 63 -32
63 -60 83 -72 51z"/>
<path d="M19146 4900 c-26 -27 -43 -50 -36 -50 6 0 8 -5 3 -12 -11 -19 -14
-37 -16 -93 -1 -27 -6 -57 -11 -65 -6 -8 -11 -35 -12 -60 -1 -25 -6 -55 -12
-65 -6 -11 -18 -45 -27 -75 -30 -103 -64 -150 -235 -328 -55 -59 -113 -124
-165 -188 -60 -74 -262 -283 -344 -356 -22 -20 -41 -42 -41 -47 0 -6 -7 -11
-15 -11 -8 0 -15 -4 -15 -10 0 -5 -6 -10 -14 -10 -8 0 -23 -11 -34 -25 -11
-14 -23 -25 -26 -25 -4 0 -32 -20 -64 -45 -31 -25 -63 -45 -70 -45 -7 0 -11
-4 -8 -8 3 -5 -16 -26 -41 -48 -26 -21 -55 -49 -66 -61 -11 -12 -24 -20 -29
-17 -4 3 -8 0 -8 -5 0 -6 -5 -11 -11 -11 -6 0 -20 -12 -31 -26 -11 -14 -27
-23 -34 -20 -8 3 -14 -1 -14 -9 0 -8 -7 -15 -15 -15 -8 0 -15 -6 -15 -14 0 -8
-12 -17 -27 -21 -19 -4 -23 -9 -14 -14 8 -6 2 -10 -18 -14 -18 -4 -31 -13 -31
-22 0 -8 -5 -15 -11 -15 -5 0 -7 -5 -4 -10 3 -6 -2 -13 -12 -17 -25 -9 -53
-39 -53 -58 0 -9 -3 -14 -7 -12 -8 3 -88 -75 -88 -86 0 -4 -90 -98 -200 -209
-196 -198 -297 -319 -357 -424 -16 -29 -36 -58 -43 -64 -8 -7 -15 -16 -15 -20
0 -9 -65 -107 -87 -132 -9 -10 -13 -18 -8 -18 4 0 -23 -29 -60 -65 -36 -36
-72 -65 -80 -65 -7 0 -25 -6 -39 -14 -46 -23 -68 -15 -103 38 -18 28 -40 54
-50 60 -10 5 -24 16 -31 23 -7 7 -18 13 -23 13 -5 0 -9 6 -9 13 0 14 -15 18
-65 16 -43 -2 -59 -4 -70 -11 -6 -3 -18 -4 -28 -3 -9 2 -15 -1 -11 -6 3 -5 0
-9 -5 -9 -6 0 -10 -3 -10 -7 1 -5 1 -15 0 -23 -1 -13 -2 -13 -11 0 -13 20 -13
4 1 -21 8 -16 7 -25 -5 -38 -9 -10 -16 -22 -16 -28 0 -6 -7 -13 -15 -17 -8 -3
-12 -11 -9 -19 5 -13 -60 -85 -117 -132 -176 -142 -188 -154 -634 -603 -225
-227 -567 -571 -758 -764 -192 -192 -346 -352 -344 -354 2 -2 856 -3 1898 -2
1638 3 1890 5 1867 17 -22 11 -28 21 -28 47 0 18 5 34 10 36 6 2 11 37 13 78
1 52 7 79 17 87 10 9 11 12 3 13 -18 0 -16 25 2 40 8 7 15 21 15 31 0 11 3 19
8 19 9 0 32 49 32 67 0 8 6 16 14 19 8 3 21 22 29 42 8 20 24 46 36 56 12 11
21 25 21 33 0 19 48 93 60 93 6 0 10 11 10 24 0 13 6 29 14 35 8 7 23 31 34
54 11 23 50 91 86 150 36 59 66 112 66 117 0 6 3 10 8 10 4 0 20 25 36 55 16
30 32 55 37 55 5 0 9 5 9 12 0 6 11 25 24 42 13 17 32 49 44 72 11 22 38 67
60 100 22 32 52 84 67 114 15 30 30 57 34 60 32 26 199 387 206 448 2 12 19
53 38 90 51 99 82 294 54 350 -7 15 -8 26 -1 30 6 4 10 27 10 51 0 27 4 46 12
49 10 3 10 7 1 18 -10 12 -9 13 5 8 9 -3 17 -1 17 5 1 6 2 14 4 19 14 51 20
62 36 67 19 6 19 35 19 1121 0 613 -1 1114 -3 1114 -2 0 -25 -22 -51 -50z"/>
<path d="M580 4709 c-14 -3 -35 -4 -47 -2 -13 3 -23 1 -23 -3 0 -5 -14 -10
-31 -11 -17 -1 -36 -6 -43 -11 -6 -5 -36 -17 -66 -27 -71 -22 -180 -75 -180
-87 0 -4 -12 -14 -27 -20 -16 -7 -44 -25 -63 -40 -19 -16 -40 -33 -47 -38 -7
-6 -16 -10 -21 -10 -30 0 -32 -50 -30 -570 2 -311 7 -516 12 -502 5 13 14 21
22 18 9 -3 11 1 8 12 -4 12 0 10 15 -6 15 -18 24 -21 38 -14 18 10 107 1 120
-11 3 -4 11 -3 18 3 12 10 85 -21 106 -46 6 -8 17 -14 23 -14 6 0 22 -12 35
-25 13 -14 28 -25 34 -25 6 0 21 -10 32 -23 11 -12 33 -28 48 -35 15 -7 25
-17 22 -22 -3 -5 5 -15 19 -22 14 -6 26 -16 26 -21 0 -15 50 -58 61 -52 5 4 9
1 9 -5 0 -6 5 -8 10 -5 6 4 9 3 8 -2 -1 -4 3 -18 10 -30 7 -13 10 -34 8 -47
-3 -14 2 -30 10 -37 8 -6 14 -17 14 -24 0 -6 11 -17 25 -23 14 -6 25 -18 25
-27 0 -8 4 -15 9 -15 5 0 12 -8 15 -18 3 -9 19 -23 36 -30 17 -8 28 -18 24
-23 -3 -5 2 -9 11 -9 26 0 115 -64 115 -83 0 -5 16 -24 35 -43 19 -18 35 -38
35 -44 0 -5 5 -10 11 -10 6 0 33 -11 59 -24 27 -13 51 -22 54 -19 3 4 6 2 6
-4 0 -6 11 -10 25 -10 16 0 25 5 25 16 0 13 2 13 9 2 6 -9 18 -11 42 -5 19 4
37 7 41 6 4 -1 5 5 2 13 -4 10 0 15 12 16 38 2 69 -3 83 -14 12 -9 13 -9 7 1
-4 6 -2 12 3 12 6 0 11 -4 11 -10 0 -5 6 -7 14 -4 8 3 17 0 22 -7 4 -7 2 -15
-4 -17 -7 -2 -12 -8 -12 -13 0 -10 -96 -109 -106 -109 -11 0 -54 -53 -67 -80
-6 -14 -11 -39 -12 -56 -2 -32 -9 -44 -56 -92 -15 -15 -30 -37 -34 -50 -4 -13
-9 -21 -12 -18 -7 7 -37 -24 -52 -51 -6 -13 -18 -23 -26 -23 -8 0 -19 -9 -25
-20 -6 -11 -16 -20 -23 -20 -7 0 -21 -14 -30 -30 -19 -32 -187 -200 -199 -200
-5 0 -8 -6 -8 -13 0 -7 -13 -21 -30 -30 -16 -10 -30 -23 -30 -28 0 -5 -8 -9
-17 -7 -14 2 -17 -3 -15 -19 2 -17 -1 -21 -12 -17 -9 3 -16 1 -16 -5 0 -6 -13
-24 -30 -39 -16 -16 -30 -34 -30 -39 0 -13 -46 -44 -69 -48 -9 -1 -15 -9 -13
-17 1 -11 -4 -14 -20 -11 -15 3 -34 -5 -53 -21 -22 -19 -37 -24 -62 -21 -19 2
-31 0 -28 -5 7 -11 -22 -19 -54 -16 -31 3 -126 -44 -144 -71 -4 -7 -15 -13
-23 -13 -8 0 -17 -7 -20 -15 -4 -8 -11 -15 -16 -15 -5 0 -29 -16 -52 -35 -24
-19 -48 -35 -55 -35 -13 0 -16 -317 -2 -338 6 -10 14 -4 29 22 12 21 29 36 40
36 10 0 24 11 30 25 6 14 17 25 24 25 10 0 10 -3 -1 -9 -14 -9 -7 -31 10 -31
6 0 8 4 4 9 -3 6 8 8 29 4 21 -3 36 -1 41 7 6 9 4 11 -5 5 -9 -5 -11 -4 -6 3
13 22 26 12 26 -18 0 -20 5 -30 15 -30 20 0 19 -9 -3 -34 -25 -28 -52 -100
-43 -114 10 -17 5 -81 -8 -116 -7 -16 -8 -32 -4 -35 4 -3 8 -19 9 -36 0 -29
-27 -64 -51 -65 -6 0 -27 -12 -48 -26 -21 -14 -50 -27 -65 -28 l-27 -3 -3
-277 -2 -276 539 0 539 0 6 35 c3 19 9 52 12 73 3 20 12 51 20 69 8 17 14 36
14 42 0 6 5 11 10 11 6 0 10 9 10 19 0 11 4 22 9 25 5 3 12 23 16 43 4 21 11
43 15 48 10 12 52 184 70 285 6 36 15 83 20 105 5 22 11 54 14 70 2 17 8 48
14 70 6 22 16 76 22 120 7 44 15 84 18 90 3 5 7 22 9 38 2 17 10 50 18 74 8
24 15 54 15 66 0 13 5 28 12 35 8 8 9 15 1 23 -7 7 -6 21 3 47 7 21 15 58 18
82 4 25 9 61 11 80 3 19 7 55 10 80 3 25 10 83 15 129 6 47 11 96 12 110 1 14
4 31 7 36 3 6 7 21 8 35 1 14 5 39 7 55 5 31 11 70 21 140 4 22 6 52 5 67 0
15 4 30 10 33 7 4 7 12 0 25 -7 13 -7 21 0 25 6 3 8 16 5 28 -3 12 -2 52 3 89
5 44 5 71 -2 78 -7 7 -6 10 2 10 9 0 10 5 2 19 -5 11 -10 33 -10 50 0 22 -5
31 -16 31 -12 0 -15 7 -11 27 4 23 -2 53 -20 103 -3 8 -8 23 -10 33 -6 34 -36
82 -69 112 -49 45 -77 65 -91 65 -7 0 -13 5 -13 10 0 6 -6 10 -13 10 -7 0 -29
9 -50 20 -20 11 -41 20 -46 20 -15 0 -112 62 -137 88 -13 12 -30 22 -39 22 -8
0 -15 8 -15 18 0 15 -2 15 -10 2 -9 -13 -12 -13 -21 3 -6 10 -22 17 -39 17
-17 0 -30 4 -30 10 0 5 -3 9 -7 9 -35 -6 -73 3 -73 16 0 8 -3 14 -7 13 -12 -4
-74 23 -105 44 -15 11 -37 20 -48 21 -11 1 -22 7 -24 14 -3 7 -12 13 -20 13
-7 0 -16 6 -19 14 -3 7 -18 16 -34 19 -16 3 -40 16 -54 29 -14 13 -42 32 -62
43 -20 11 -37 23 -37 28 0 4 -4 6 -8 3 -11 -6 -58 45 -54 58 2 5 -4 6 -13 2
-12 -4 -16 -1 -13 12 2 9 13 18 26 20 17 3 21 8 17 23 -5 15 2 23 31 36 28 14
38 15 41 6 5 -15 39 -17 47 -4 3 5 26 4 53 -1 35 -8 48 -7 51 1 3 9 8 9 19 -1
9 -7 36 -14 60 -15 25 -2 54 -10 65 -17 11 -8 27 -12 34 -9 8 3 14 0 14 -7 0
-7 6 -10 14 -7 7 3 17 2 22 -3 15 -13 87 -23 79 -11 -3 7 0 8 9 5 9 -3 13 -10
10 -15 -3 -5 4 -9 16 -9 13 0 19 -4 14 -12 -5 -8 0 -9 16 -5 13 3 32 -1 46
-10 13 -8 30 -13 38 -10 8 3 17 3 20 -1 4 -3 30 -7 58 -8 29 -1 54 -7 56 -12
2 -6 9 -9 16 -6 8 3 21 -2 30 -11 9 -10 24 -14 35 -10 12 3 21 0 24 -10 4 -8
13 -12 22 -9 8 3 12 11 9 16 -4 6 -1 8 7 6 8 -3 13 -11 12 -17 -2 -6 6 -11 16
-11 11 0 21 -4 23 -10 2 -5 21 -11 42 -14 22 -3 42 -10 46 -17 4 -6 12 -9 18
-5 6 3 14 1 17 -5 4 -5 13 -8 20 -5 7 2 25 -2 40 -10 16 -8 40 -16 54 -17 14
-2 43 -12 64 -22 31 -14 40 -15 50 -5 9 10 9 11 0 6 -7 -4 -13 -4 -13 1 0 9
-72 46 -96 49 -7 1 -25 11 -39 23 -15 11 -32 18 -39 15 -7 -3 -19 2 -26 10 -7
9 -16 13 -21 10 -5 -3 -9 2 -9 10 0 11 -9 16 -29 16 -16 0 -36 6 -43 13 -7 8
-31 20 -53 27 -45 14 -108 46 -143 72 -13 9 -36 19 -51 23 -16 3 -37 14 -47
24 -11 10 -32 21 -46 24 -32 8 -28 37 6 38 20 0 20 1 1 9 -13 6 -15 9 -5 9 12
1 13 3 1 10 -10 7 -8 11 10 16 13 4 27 12 31 18 8 13 -50 69 -63 61 -5 -3 -9
-1 -9 5 0 5 -10 13 -21 16 -12 4 -37 23 -55 42 -30 31 -36 44 -33 69 0 4 -5
10 -12 14 -7 5 -12 22 -11 39 0 22 -3 29 -11 24 -7 -4 -6 0 2 10 11 14 11 20
1 32 -10 12 -10 19 -2 27 8 8 9 15 1 25 -7 8 -8 13 -1 13 5 0 12 9 15 20 3 14
14 20 32 20 19 0 40 14 71 45 24 25 48 45 54 45 5 0 26 18 46 40 28 30 40 38
49 30 7 -6 15 -7 18 -3 9 16 6 87 -4 99 -6 7 -8 18 -4 24 5 9 -7 14 -27 12 -3
-1 -12 5 -18 13 -7 8 -9 15 -5 15 5 0 -2 8 -13 19 -12 10 -19 21 -15 25 3 3
-4 6 -18 5 -23 0 -68 8 -99 17 -12 4 -12 7 -1 13 10 7 9 10 -8 16 -11 3 -21
11 -21 16 0 6 -4 7 -10 4 -5 -3 -10 1 -10 9 0 10 -6 13 -17 9 -11 -4 -14 -3
-9 5 4 7 2 12 -4 12 -6 0 -8 4 -5 10 4 6 -1 7 -11 3 -13 -5 -15 -3 -9 8 8 12
6 12 -9 0 -9 -8 -16 -10 -15 -5 4 22 -2 34 -16 34 -9 0 -18 7 -21 15 -4 8 -12
15 -19 15 -7 0 -19 10 -27 21 -8 12 -25 23 -39 24 -13 1 -37 7 -52 13 -29 12
-55 13 -97 1z"/>
<path d="M18646 4380 c-16 -10 -32 -23 -35 -28 -3 -5 -17 -15 -31 -22 -14 -7
-36 -22 -50 -32 -14 -10 -48 -36 -76 -58 -29 -21 -55 -36 -58 -33 -3 4 -6 0
-6 -8 0 -14 -157 -169 -171 -169 -4 0 -15 -7 -23 -16 -55 -55 -183 -120 -254
-129 -20 -3 -38 -9 -40 -15 -2 -6 -8 -7 -14 -4 -5 4 -23 -3 -39 -15 -15 -11
-35 -21 -43 -21 -8 0 -28 -14 -45 -31 -18 -17 -36 -27 -42 -23 -7 4 -9 3 -6
-3 4 -6 -3 -19 -14 -29 -87 -80 -163 -167 -182 -206 -12 -27 -25 -48 -29 -48
-13 0 -52 -75 -50 -97 1 -13 -2 -23 -6 -23 -4 0 -9 -10 -9 -22 -1 -13 -7 -24
-13 -26 -5 -2 -10 -9 -10 -15 0 -7 -7 -25 -15 -40 -8 -15 -11 -35 -8 -44 4
-10 2 -14 -4 -10 -6 4 -16 0 -23 -8 -7 -8 -9 -15 -5 -15 4 0 2 -6 -4 -14 -6
-7 -23 -35 -37 -62 -14 -27 -30 -52 -36 -55 -11 -7 -9 -19 6 -36 9 -9 14 -8
23 4 10 12 15 13 27 4 11 -9 15 -8 20 4 3 9 18 15 35 15 17 0 31 6 35 15 3 9
14 15 23 13 10 -2 17 2 16 9 -2 6 6 15 17 18 11 4 20 13 20 21 0 8 6 14 14 14
7 0 16 9 19 21 4 14 10 18 18 13 9 -5 10 -2 6 9 -6 16 8 22 35 18 4 0 5 6 2
14 -4 8 -1 15 4 15 6 0 16 16 23 35 7 19 17 35 21 35 4 0 8 7 8 15 0 8 5 15
10 15 6 0 10 9 10 20 0 11 4 20 9 20 10 0 37 69 33 83 -1 4 5 7 13 7 8 0 15 8
15 19 0 10 7 24 15 31 8 7 15 16 15 21 0 10 27 44 53 68 9 8 17 21 17 28 0 7
6 13 14 13 8 0 17 10 20 23 5 19 81 77 101 77 4 0 24 14 45 30 21 17 45 30 54
30 9 0 16 4 16 10 0 5 11 12 25 16 14 3 25 10 25 14 0 5 10 12 22 16 12 3 27
12 34 18 6 6 22 18 35 26 13 8 38 30 58 48 19 17 38 32 43 32 10 0 158 149
158 160 0 5 9 12 20 15 11 3 23 17 26 30 3 13 17 31 30 40 13 8 24 21 24 27 0
6 7 18 15 27 30 32 95 121 88 120 -5 0 -21 -9 -37 -19z"/>
<path d="M4020 3591 c-5 -11 -10 -27 -10 -35 0 -9 -4 -16 -9 -16 -5 0 -15 -17
-22 -37 -7 -21 -23 -55 -36 -76 -13 -21 -21 -42 -18 -47 4 -6 0 -13 -8 -16 -8
-3 -13 -13 -10 -23 2 -9 -3 -23 -11 -30 -9 -8 -16 -22 -16 -32 0 -11 -4 -19
-8 -19 -4 0 -9 -15 -10 -32 -1 -18 -3 -42 -6 -53 -2 -11 -5 -23 -5 -27 -1 -5
-9 -8 -18 -9 -15 0 -15 -2 2 -8 18 -8 17 -10 -12 -28 -18 -11 -30 -23 -26 -27
5 -4 0 -12 -10 -17 -9 -6 -17 -19 -17 -30 0 -11 -9 -32 -20 -47 -10 -15 -21
-40 -23 -55 -2 -16 -8 -32 -14 -35 -7 -4 -13 -19 -15 -34 -2 -15 -7 -30 -11
-34 -4 -4 -4 -18 0 -32 4 -19 3 -23 -7 -17 -10 6 -12 3 -8 -13 4 -12 2 -22 -2
-22 -5 0 -12 -16 -16 -35 -3 -20 -9 -34 -12 -31 -11 12 -31 -31 -32 -66 0 -25
-7 -45 -21 -59 -13 -13 -17 -24 -11 -28 11 -7 -4 -34 -23 -42 -5 -2 -8 -10 -7
-17 4 -18 -26 -82 -39 -82 -6 0 -8 -4 -4 -9 3 -5 1 -12 -4 -15 -5 -3 -14 -20
-20 -36 -6 -19 -6 -28 -1 -25 11 7 -8 -43 -22 -60 -4 -5 -8 -19 -8 -32 0 -13
-5 -23 -11 -23 -5 0 -7 -5 -4 -10 4 -6 2 -25 -4 -43 -6 -17 -11 -36 -10 -40 0
-4 -7 -19 -15 -33 -9 -13 -12 -24 -6 -24 5 0 9 -3 8 -7 -2 -10 9 -40 27 -75 8
-15 10 -30 5 -33 -5 -3 -11 -19 -15 -35 -4 -17 -11 -30 -16 -30 -5 0 -9 -11
-9 -24 0 -14 -7 -31 -15 -39 -8 -8 -12 -24 -10 -36 2 -12 0 -21 -4 -21 -11 0
-24 -39 -21 -64 1 -10 -3 -15 -8 -12 -6 4 -13 2 -17 -4 -3 -5 -1 -10 4 -10 19
0 12 -30 -6 -31 -15 0 -15 -2 2 -9 11 -5 14 -9 7 -9 -22 -1 -44 -30 -38 -49 4
-11 -6 -45 -21 -78 -15 -32 -26 -67 -26 -76 1 -10 -1 -17 -5 -17 -4 1 -14 1
-22 0 -13 -1 -13 -2 0 -11 13 -9 13 -10 0 -11 -8 -1 -18 -1 -22 0 -4 0 -12
-15 -18 -34 -6 -19 -20 -37 -31 -40 -14 -5 -17 -10 -10 -19 14 -16 -23 -96
-44 -96 -9 0 -36 -9 -61 -20 -34 -16 -44 -26 -44 -44 0 -13 -7 -29 -15 -36 -8
-7 -15 -17 -15 -22 0 -5 -9 -19 -20 -31 -12 -13 -16 -23 -10 -25 14 -5 -7 -32
-25 -32 -7 0 -24 -23 -37 -51 -14 -27 -28 -50 -32 -50 -26 3 -37 -1 -34 -11 3
-7 -6 -24 -19 -38 -13 -14 -21 -31 -18 -38 7 -20 -11 -49 -35 -55 -13 -3 -18
-1 -14 6 3 7 -9 -4 -26 -23 -17 -19 -29 -29 -25 -22 3 6 0 12 -7 12 -23 0 -39
-16 -32 -33 8 -21 -44 -69 -69 -63 -20 5 -43 -29 -27 -39 5 -3 15 -15 21 -27
8 -15 8 -19 0 -14 -6 4 -14 -1 -18 -11 -3 -10 -13 -22 -20 -26 -7 -5 -11 -12
-8 -17 3 -4 -2 -11 -11 -14 -11 -4 -14 -13 -10 -30 5 -19 1 -25 -19 -30 -14
-4 -25 -13 -25 -22 0 -8 -4 -12 -10 -9 -5 3 -10 1 -10 -6 0 -7 9 -9 23 -6 l22
6 -21 -17 c-30 -24 -37 -50 -17 -61 13 -7 8 -9 -21 -9 -20 0 -40 -3 -44 -7
-10 -9 19 -24 37 -18 9 3 4 -7 -11 -21 -16 -14 -28 -34 -28 -45 0 -11 -9 -26
-21 -34 -11 -8 -16 -16 -10 -18 6 -2 2 -10 -10 -17 -12 -8 -18 -9 -14 -3 3 6
2 11 -3 11 -5 0 -12 -9 -15 -20 -3 -13 0 -20 9 -20 8 0 14 -4 14 -8 0 -5 -15
-7 -32 -6 -18 2 -25 1 -15 -2 9 -3 17 -11 17 -19 0 -7 7 -15 15 -19 24 -9 610
-2 612 8 1 5 7 13 15 17 10 7 10 9 0 9 -8 0 -5 8 8 22 22 24 26 38 10 38 -5 0
-10 7 -10 15 0 8 5 15 11 15 5 0 17 16 25 35 8 19 17 35 20 35 3 0 2 -6 -2
-12 -5 -9 -2 -9 9 1 9 7 17 21 17 29 0 13 3 12 14 -3 8 -11 12 -24 8 -29 -3
-5 2 -7 11 -3 13 5 17 1 17 -17 0 -14 4 -26 10 -28 13 -4 48 -99 44 -121 -2
-16 67 -17 1097 -17 1168 0 1106 -2 1113 43 1 8 8 22 15 30 7 9 14 22 15 29 2
7 7 24 13 38 6 14 11 43 11 64 1 22 5 42 10 45 13 9 31 68 24 77 -4 4 -1 4 6
-1 10 -5 13 -2 10 11 -2 11 -12 19 -23 19 -14 0 -19 6 -17 18 2 9 -4 20 -12
23 -9 3 -13 10 -10 16 3 5 12 4 22 -4 10 -8 13 -8 9 -1 -4 6 -1 14 5 17 7 3 1
3 -15 1 -32 -4 -59 28 -61 73 -1 16 -6 26 -14 24 -10 -2 -10 2 -2 18 10 19 4
25 -22 21 -4 0 -5 6 -2 14 4 8 1 15 -5 15 -6 0 -11 10 -11 22 0 17 -3 19 -12
10 -10 -10 -10 -17 0 -32 6 -11 12 -23 12 -27 0 -5 -4 -2 -9 6 -8 12 -12 12
-25 -2 -9 -8 -16 -21 -16 -28 0 -7 -6 -5 -14 6 -13 18 -13 18 -24 -1 -9 -14
-12 -15 -13 -4 -1 8 -1 19 0 24 1 4 -11 19 -26 33 -15 14 -23 22 -16 19 6 -3
14 -2 18 4 3 5 0 10 -8 10 -10 0 -13 7 -10 20 4 14 0 20 -12 20 -11 0 -15 5
-11 16 3 8 2 13 -3 10 -8 -5 -13 4 -39 64 -31 71 -41 103 -35 113 3 5 -2 16
-12 24 -11 7 -14 13 -7 13 7 0 5 12 -8 32 -10 17 -17 35 -14 39 2 5 -3 17 -13
29 -10 11 -18 24 -19 28 -2 15 -18 47 -33 64 -9 10 -17 23 -17 28 -1 6 -2 14
-3 19 0 5 -7 16 -13 23 -23 24 -39 59 -33 68 4 6 2 10 -3 10 -5 0 -13 8 -16
18 -8 21 -28 55 -44 74 -6 8 -9 18 -5 22 4 3 -1 12 -11 19 -9 7 -18 22 -19 35
0 12 -7 22 -15 22 -7 0 -11 4 -8 9 7 11 -25 71 -37 71 -5 0 -6 4 -2 9 6 11
-12 58 -33 83 -7 9 -15 22 -17 30 -9 37 -18 58 -26 58 -5 0 -9 7 -9 15 0 8
-11 35 -25 60 -14 25 -23 45 -20 45 3 0 -5 17 -19 38 -13 20 -32 58 -42 84
-33 83 -39 61 -17 -57 9 -47 9 -115 0 -115 -5 0 -5 -5 -1 -12 4 -7 9 -28 11
-47 2 -20 6 -37 8 -39 2 -3 -1 -14 -7 -25 -8 -16 -7 -23 8 -34 16 -11 17 -17
6 -33 -10 -17 -10 -20 5 -21 16 0 16 -1 2 -7 -9 -4 -15 -15 -12 -27 6 -35 6
-50 -2 -70 -5 -16 -5 -17 4 -5 9 13 11 12 12 -5 3 -77 10 -142 16 -155 3 -8 5
-25 4 -38 -2 -13 2 -28 7 -35 7 -8 7 -30 1 -62 -6 -33 -6 -51 1 -53 6 -2 8 -8
4 -13 -3 -5 -2 -15 2 -21 5 -7 9 -19 9 -28 1 -8 5 -42 9 -75 5 -33 7 -60 5
-60 -1 0 3 -11 10 -24 10 -19 10 -22 0 -16 -8 6 -10 4 -4 -5 4 -7 10 -27 12
-43 1 -17 9 -34 16 -39 9 -6 9 -8 -1 -8 -9 0 -9 -5 2 -23 9 -13 13 -36 11 -56
-3 -20 1 -39 10 -47 11 -11 11 -21 4 -44 -9 -24 -8 -33 6 -46 9 -9 14 -23 11
-31 -3 -8 -6 -17 -6 -19 0 -2 -5 -4 -11 -4 -17 0 -41 29 -33 41 4 7 -1 18 -10
24 -15 11 -15 15 -2 28 13 13 12 16 -10 27 -17 10 -21 17 -13 26 7 9 6 15 -5
21 -14 8 -16 12 -16 34 0 5 -4 7 -10 4 -5 -3 -12 12 -16 34 -4 22 -11 39 -17
38 -6 -1 -13 9 -17 23 -3 14 -17 48 -33 77 -15 29 -27 63 -27 75 0 19 -2 20
-10 8 -7 -11 -10 -7 -10 18 0 17 -4 32 -9 32 -6 0 -18 25 -27 55 -10 30 -22
51 -27 48 -6 -3 -7 -1 -3 5 4 6 -2 28 -13 49 -27 54 -52 115 -57 138 -2 11 -8
29 -13 40 -10 22 -35 87 -37 95 0 3 -4 12 -8 21 -4 9 -8 28 -10 42 -1 14 -8
32 -14 40 -6 7 -13 36 -16 63 -2 27 -8 67 -14 89 -6 22 -13 69 -16 104 -4 35
-8 66 -10 70 -2 3 -7 40 -11 81 -4 41 -13 89 -20 105 -7 17 -13 37 -13 45 0 8
-3 38 -6 65 -2 28 -8 93 -11 145 -7 87 -12 145 -14 145 -1 0 -3 47 -6 105 -2
58 -7 141 -11 185 -16 216 -23 576 -13 763 3 56 4 102 2 102 -1 0 -7 -9 -13
-19z"/>
<path d="M4332 3483 c-11 -21 -46 -123 -48 -138 0 -5 -4 -17 -7 -25 -14 -34
-26 -159 -21 -215 9 -90 11 -109 13 -120 2 -5 2 -22 1 -36 0 -15 6 -33 14 -42
10 -9 13 -23 9 -33 -4 -11 -3 -15 5 -10 7 4 10 -6 9 -34 -1 -23 3 -44 9 -48
14 -10 47 -100 40 -111 -4 -5 -2 -12 4 -16 6 -4 7 -12 4 -18 -5 -8 -4 -9 3 -2
15 14 25 108 12 99 -8 -4 -8 0 -1 12 8 16 16 347 12 449 -1 17 -3 56 -3 87 -1
32 -4 58 -7 58 -3 0 -6 28 -8 61 -1 34 -9 70 -16 81 -14 19 -15 19 -24 1z"/>
<path d="M16472 2704 c-22 -25 -54 -49 -77 -56 -30 -10 -48 -27 -82 -76 -47
-69 -76 -151 -62 -173 5 -8 9 -9 9 -4 0 6 5 2 11 -7 7 -12 6 -24 -2 -39 -6
-12 -7 -19 -1 -15 6 3 12 1 14 -5 3 -8 10 -9 23 -2 11 5 36 9 57 8 20 0 34 3
32 7 -3 5 1 8 10 8 8 0 45 37 82 83 38 45 79 93 91 107 29 31 31 76 3 85 -15
5 -20 15 -20 41 0 19 -5 34 -10 34 -7 0 -7 6 -1 19 9 16 7 20 -14 23 -19 4
-33 -4 -63 -38z"/>
<path d="M150 2415 c-9 -11 -9 -15 -1 -15 7 0 10 -4 7 -8 -3 -5 -19 -7 -35 -6
-34 2 -44 -6 -36 -28 8 -20 35 -19 35 1 0 11 3 12 11 4 17 -17 1 -33 -32 -33
-32 0 -38 -14 -11 -29 15 -9 13 -10 -10 -11 -15 0 -29 -4 -32 -8 -3 -5 5 -8
17 -8 19 1 22 -4 21 -31 -1 -18 2 -30 7 -27 5 3 9 0 9 -6 0 -6 4 -9 9 -6 10 7
23 -19 14 -28 -4 -3 -16 -6 -29 -6 -20 0 -21 -2 -11 -25 7 -14 18 -25 25 -25
6 0 12 -7 12 -15 0 -8 -6 -15 -14 -15 -8 0 -16 -6 -19 -14 -7 -18 22 -31 37
-16 5 5 14 10 20 10 5 0 6 -3 3 -7 -8 -7 11 -33 24 -33 5 0 15 11 21 25 13 30
32 34 23 5 -5 -15 -3 -18 9 -14 9 3 16 10 16 16 0 5 4 7 8 4 5 -3 16 4 25 15
9 10 24 19 32 19 8 0 15 4 15 8 0 5 16 14 35 22 19 7 37 22 41 32 3 10 10 18
15 18 5 0 9 9 9 20 0 11 -5 20 -12 20 -8 0 -6 6 4 16 15 15 14 18 -12 40 -19
17 -26 30 -23 44 4 16 0 20 -21 20 -14 0 -26 4 -26 8 0 14 -48 32 -86 32 -22
0 -37 6 -40 15 -4 8 -15 15 -26 15 -10 0 -16 5 -13 10 9 15 -1 12 -15 -5z"/>
<path d="M5741 2053 c-12 -15 -18 -20 -15 -10 4 11 1 17 -8 17 -10 0 -13 -11
-10 -39 3 -32 0 -40 -17 -46 -12 -4 -18 -12 -14 -21 3 -8 -1 -14 -8 -14 -9 -1
-7 -6 5 -15 11 -8 16 -15 12 -15 -5 0 -3 -7 4 -15 12 -15 8 -18 -20 -16 -10 1
-15 -7 -15 -23 0 -13 3 -22 7 -20 4 2 5 -18 3 -45 -3 -35 1 -53 11 -62 11 -9
11 -15 3 -25 -15 -18 -4 -45 16 -38 11 5 14 2 8 -12 -6 -18 -5 -18 16 0 22 20
22 20 16 0 -6 -17 -5 -17 7 -4 13 15 52 19 65 7 12 -13 42 13 36 31 -6 15 -5
15 10 3 9 -7 14 -18 10 -24 -3 -6 -1 -7 6 -3 6 4 8 12 5 18 -5 7 0 9 13 6 17
-4 19 -2 15 15 -4 15 -2 18 8 12 10 -6 12 -4 7 9 -4 10 -7 22 -7 27 0 6 -4 7
-10 4 -5 -3 -10 -2 -10 4 0 5 13 18 29 27 25 15 28 21 19 37 -7 14 -7 17 1 13
6 -4 12 -2 12 3 1 6 2 17 3 24 0 6 6 12 13 12 19 0 25 12 18 34 -3 12 -13 21
-21 21 -9 0 -12 -5 -8 -11 4 -7 1 -10 -7 -7 -8 2 -20 17 -27 31 -7 15 -20 27
-28 27 -7 0 -14 4 -14 10 0 5 -11 12 -25 16 -13 3 -23 11 -22 18 1 6 -9 12
-23 13 -14 0 -31 1 -38 2 -7 1 -10 6 -7 11 3 6 0 10 -7 10 -10 0 -9 3 2 10 8
5 12 12 8 15 -3 3 -15 -7 -27 -22z"/>
<path d="M19190 1044 c0 -9 -14 -33 -30 -53 -45 -54 -50 -60 -50 -65 0 -3 -13
-26 -30 -52 -16 -26 -37 -72 -46 -103 -9 -30 -24 -72 -35 -93 -10 -20 -19 -46
-19 -56 0 -11 -6 -25 -14 -31 -8 -7 -18 -26 -21 -42 -4 -16 -11 -29 -16 -29
-5 0 -9 -6 -9 -14 0 -8 -6 -27 -14 -43 -8 -15 -29 -57 -47 -93 -18 -36 -41
-80 -51 -98 -10 -18 -18 -39 -18 -48 0 -8 -20 -45 -43 -82 -24 -37 -54 -84
-66 -104 l-23 -38 271 0 271 0 0 530 c0 292 -2 530 -5 530 -3 0 -5 -7 -5 -16z"/>
<path d="M5563 955 c-13 -5 -23 -15 -23 -22 0 -7 -5 -13 -11 -13 -5 0 -7 5 -4
10 3 6 -1 10 -9 10 -10 0 -13 -7 -11 -21 3 -12 2 -19 -2 -15 -3 3 -12 1 -19
-5 -17 -14 -57 10 -44 26 7 8 5 12 -5 12 -7 0 -13 -5 -12 -11 1 -6 -4 -10 -10
-8 -14 2 -16 -7 -13 -50 2 -33 -24 -77 -34 -56 -3 7 -3 0 0 -17 3 -16 10 -33
16 -36 7 -4 6 -9 -1 -13 -6 -4 -15 -4 -21 -1 -5 3 -10 -1 -10 -10 0 -12 5 -15
18 -10 9 3 19 7 22 8 3 1 5 -3 5 -8 0 -6 -4 -9 -8 -7 -5 1 -6 -2 -2 -8 3 -5
12 -10 20 -10 8 0 17 -4 20 -10 4 -6 -6 -8 -23 -6 -27 3 -28 2 -18 -20 6 -13
17 -24 24 -24 10 0 12 -10 7 -40 -4 -25 -3 -40 4 -40 6 0 8 -18 4 -50 -4 -34
-2 -50 6 -50 6 0 11 -9 11 -21 0 -11 -4 -17 -10 -14 -5 3 -10 2 -10 -3 0 -6
15 -10 34 -9 25 1 32 5 29 17 -3 10 3 16 14 18 52 6 85 22 79 38 -3 7 -1 16 3
18 8 5 17 36 28 101 3 17 10 36 15 43 6 7 8 15 5 19 -4 3 -1 13 6 21 10 12 9
16 -1 20 -10 3 -10 7 -1 18 8 10 8 22 0 45 -9 26 -8 37 4 55 19 29 19 35 0 28
-9 -4 -16 3 -21 20 -3 14 -14 26 -23 27 -12 0 -12 2 4 9 11 5 15 9 8 9 -6 1
-13 11 -15 24 -3 19 -6 21 -25 12z"/>
</g>
</svg>
