<?xml version="1.0" standalone="no"?>
<!DOCTYPE svg PUBLIC "-//W3C//DTD SVG 20010904//EN"
 "http://www.w3.org/TR/2001/REC-SVG-20010904/DTD/svg10.dtd">
<svg version="1.0" xmlns="http://www.w3.org/2000/svg"
 width="1124.000000pt" height="1125.000000pt" viewBox="0 0 1124.000000 1125.000000"
 preserveAspectRatio="xMidYMid meet">
<metadata>
Created by potrace 1.16, written by Peter Selinger 2001-2019
</metadata>
<g transform="translate(0.000000,1125.000000) scale(0.100000,-0.100000)"
fill="#000000" stroke="none">
<path d="M4660 9670 c-14 -4 -40 -8 -57 -9 -33 -1 -44 -15 -20 -24 6 -3 -1 -5
-18 -5 -57 1 -60 -1 -39 -18 19 -15 19 -15 -3 -11 -19 4 -21 2 -13 -17 6 -17
4 -25 -11 -35 -11 -6 -17 -16 -13 -22 4 -8 -1 -9 -17 -4 -26 8 -33 9 -64 6
-17 -1 -18 -3 -5 -11 10 -7 11 -10 3 -11 -28 -3 -32 -4 -40 -13 -4 -5 -3 -6 4
-2 6 3 14 2 17 -3 3 -5 -8 -14 -24 -21 -16 -7 -35 -19 -42 -28 -11 -13 -11
-15 2 -8 8 4 2 -4 -15 -18 -16 -14 -33 -26 -37 -26 -5 0 -8 -4 -8 -10 0 -5 8
-7 18 -4 16 5 16 5 0 -9 -10 -8 -18 -18 -18 -23 0 -4 5 -3 12 4 7 7 21 12 32
12 30 0 5 -20 -29 -24 -34 -4 -134 -66 -135 -83 0 -7 -8 -16 -17 -22 -27 -14
-10 -23 22 -11 20 8 31 7 42 -1 11 -9 17 -9 26 0 9 10 8 11 -5 6 -14 -5 -18
-2 -18 13 0 34 151 83 191 62 16 -9 20 -6 25 17 10 41 60 149 72 157 6 4 8 14
5 23 -5 11 -3 14 6 9 15 -10 73 42 64 57 -3 6 -2 7 4 4 12 -8 65 27 56 37 -4
4 1 4 11 0 13 -5 17 -4 12 4 -4 6 3 16 16 23 12 6 31 20 42 30 22 21 11 23
-34 9z"/>
<path d="M4697 9614 c-16 -9 -26 -18 -23 -22 4 -3 12 0 18 6 17 17 28 15 21
-5 -4 -11 -3 -14 5 -9 7 4 12 14 12 22 0 8 7 14 16 14 14 0 15 -3 3 -17 -7
-10 -14 -19 -15 -21 -1 -2 -14 -5 -30 -8 -23 -4 -92 -44 -145 -84 -3 -3 -9
-15 -13 -27 -6 -18 -3 -21 17 -19 20 2 25 -2 25 -21 0 -22 -12 -28 -47 -24 -7
2 -11 -1 -8 -6 3 -4 -2 -17 -10 -28 -14 -19 -15 -18 -11 12 3 18 0 35 -6 37
-7 3 -6 5 2 5 6 1 12 10 12 22 0 19 -1 20 -17 3 -10 -10 -18 -20 -18 -23 -2
-18 -18 -52 -22 -47 -3 3 -11 -1 -18 -8 -18 -17 -26 -74 -12 -83 7 -4 4 -10
-9 -15 -12 -5 -2 -6 26 -3 25 3 50 11 55 17 7 8 6 9 -2 4 -15 -8 -50 8 -36 17
5 3 22 -1 38 -9 32 -16 150 -13 185 6 9 5 21 6 25 2 5 -4 5 -2 2 4 -4 6 -17 9
-30 7 -17 -3 -24 0 -24 11 0 11 13 18 39 22 37 6 48 17 28 29 -17 10 -11 39
10 53 11 7 20 9 20 5 0 -5 43 -9 96 -10 84 -2 95 -1 90 13 -5 12 -2 15 10 10
8 -3 20 -6 25 -6 5 0 9 -10 10 -22 0 -13 3 -18 5 -12 3 7 14 10 25 7 17 -5 19
-2 15 21 -5 29 -3 30 23 17 10 -6 23 -6 31 -1 12 7 11 12 -4 29 -21 23 -52 29
-40 9 5 -9 2 -8 -10 1 -21 17 -97 16 -108 -2 -6 -9 -8 -9 -8 1 0 29 -188 -5
-264 -47 -43 -25 -57 -26 -50 -6 4 8 14 15 24 15 10 0 20 3 22 8 6 14 144 53
213 60 83 8 108 7 200 -1 49 -5 63 -4 48 3 -13 5 -23 15 -23 21 0 8 6 7 18 -2
15 -13 16 -12 3 4 -8 9 -11 20 -8 23 3 4 15 -9 26 -27 11 -18 26 -34 33 -35 7
-1 27 -5 43 -9 l30 -6 -25 20 c-14 11 -34 27 -45 35 -38 29 2 16 44 -14 26
-19 39 -35 35 -43 -4 -7 -4 -9 1 -5 4 4 20 -1 34 -12 30 -21 93 -40 76 -22 -5
5 -19 12 -30 15 -11 3 -1 5 22 4 25 0 44 -6 47 -14 3 -7 14 -13 25 -13 11 0
27 -7 35 -16 15 -14 16 -14 16 5 0 12 -4 21 -10 21 -5 0 -10 7 -10 15 0 20
-29 65 -42 65 -5 0 -6 -4 -3 -10 3 -5 1 -10 -4 -10 -6 0 -11 4 -11 9 0 5 -10
11 -22 14 -20 5 -21 4 -7 -6 22 -17 21 -46 -2 -40 -11 3 -15 11 -12 21 5 10 3
13 -6 8 -7 -5 -25 -9 -41 -10 -23 -2 -27 1 -18 11 7 9 6 14 -6 19 -9 3 -14 9
-11 13 2 4 -6 7 -18 6 -12 -2 -33 7 -47 19 -21 18 -22 18 -10 2 14 -18 13 -19
-5 -11 -11 4 -31 8 -44 8 -17 -1 -20 1 -10 7 10 7 6 12 -15 20 -16 6 -31 8
-34 5 -3 -2 -11 0 -19 6 -21 18 -15 -6 7 -26 21 -19 26 -35 11 -35 -5 0 -19
16 -30 36 -14 24 -27 34 -36 30 -8 -3 -15 -1 -15 4 0 9 -104 8 -193 -3 -21 -2
-40 0 -43 5 -8 12 -36 9 -67 -8z"/>
<path d="M5130 9450 c0 -6 -9 -10 -20 -10 -11 0 -20 -4 -20 -9 0 -17 24 -19
53 -4 29 14 35 10 14 -11 -7 -7 -19 -11 -27 -8 -9 3 -6 -4 8 -17 12 -12 22
-23 22 -25 0 -2 -22 8 -49 21 -56 28 -83 23 -54 -9 18 -20 18 -21 -4 -9 -28
14 -30 14 -30 -3 0 -8 6 -12 13 -9 6 2 15 -1 20 -8 4 -8 3 -10 -4 -5 -7 4 -12
3 -12 -2 0 -12 24 -22 51 -22 11 0 18 -4 15 -9 -3 -4 -18 -6 -32 -3 -15 3 -25
1 -22 -4 4 -5 -12 -10 -33 -11 -22 -2 -38 1 -35 6 3 5 -9 5 -29 1 -19 -4 -37
-6 -40 -4 -3 2 -2 -1 3 -6 4 -5 38 -11 75 -13 38 -2 73 -9 80 -16 6 -6 21 -11
34 -11 13 0 23 -5 23 -10 0 -6 -12 -8 -27 -5 -28 6 -28 6 2 -8 17 -8 39 -25
50 -37 11 -13 14 -20 7 -16 -10 6 -11 1 -6 -19 l7 -27 -26 26 c-27 27 -65 37
-51 14 5 -8 0 -7 -11 2 -16 13 -18 13 -13 0 2 -8 14 -16 26 -18 38 -6 24 -18
-14 -14 l-37 5 54 -57 c48 -50 81 -74 63 -44 -4 7 -3 8 4 4 7 -4 10 -16 9 -26
-4 -24 -17 -39 -17 -19 0 16 -53 69 -68 69 -5 0 -15 6 -21 14 -7 8 -26 19 -43
25 l-32 11 21 -22 c11 -13 26 -34 33 -48 11 -22 8 -20 -25 10 -38 35 -38 35
-19 5 11 -16 25 -43 32 -60 11 -28 11 -29 -3 -10 -9 11 -29 40 -46 63 -17 24
-33 41 -36 38 -4 -3 1 -14 9 -23 27 -32 29 -41 9 -36 -16 4 -19 1 -14 -19 4
-19 1 -17 -16 10 -11 17 -24 32 -28 31 -5 -1 -19 -1 -33 1 -20 1 -22 3 -7 8
14 6 12 10 -15 19 -26 10 -30 10 -17 0 9 -7 14 -18 12 -24 -3 -7 1 -13 8 -13
7 0 9 -3 6 -6 -4 -4 -13 -1 -21 5 -8 7 -20 10 -27 6 -7 -5 1 -13 20 -22 17 -9
28 -19 25 -24 -3 -5 -13 -5 -23 0 -21 12 -101 12 -101 0 0 -4 18 -14 40 -20
39 -12 52 -32 28 -42 -10 -4 -10 -6 -1 -6 6 -1 15 4 18 9 3 6 11 10 17 10 7 0
7 -4 -1 -13 -6 -8 -7 -18 -3 -22 4 -5 2 -5 -5 -1 -6 3 -15 1 -19 -5 -4 -8 -9
-7 -15 2 -7 11 -9 10 -9 -3 0 -12 -6 -16 -17 -12 -16 5 -16 4 -3 -8 8 -7 16
-22 18 -33 8 -61 12 -79 22 -89 5 -5 10 -15 10 -20 0 -6 -4 -5 -9 3 -7 11 -10
9 -16 -8 -3 -11 -4 -25 -1 -29 3 -5 -2 -18 -10 -28 -9 -10 -13 -14 -10 -7 4 6
-10 24 -30 39 l-36 28 -24 -29 c-17 -21 -20 -33 -12 -42 5 -7 14 -10 19 -7 5
3 9 1 9 -4 0 -5 -14 -9 -32 -10 -21 0 -28 2 -19 8 10 6 8 10 -8 15 -20 6 -41
0 -30 -8 61 -46 64 -49 44 -47 -43 5 -49 1 -29 -19 17 -16 20 -16 26 -2 6 13
7 12 5 -3 -1 -12 -15 -24 -34 -30 -53 -18 -48 -24 19 -19 46 3 59 2 48 -6 -8
-6 -35 -11 -59 -11 -31 0 -42 -3 -35 -10 7 -7 25 -8 50 -2 54 11 67 9 69 -8 2
-12 -6 -14 -37 -12 -29 3 -38 1 -36 -9 2 -8 -2 -13 -9 -12 -7 2 -10 -7 -7 -23
3 -16 1 -23 -6 -19 -5 3 -10 2 -10 -3 0 -15 45 -41 66 -38 10 2 23 -2 27 -8 4
-6 5 3 2 19 l-6 30 14 -24 c8 -14 22 -26 32 -27 10 -1 22 -7 28 -13 6 -6 20
-11 31 -10 18 1 17 2 -4 9 -14 4 -20 8 -13 9 7 1 10 8 6 19 -4 12 -3 14 5 7
14 -12 112 -7 112 7 0 5 -5 6 -12 2 -7 -4 -8 -3 -4 5 6 9 11 9 23 -1 14 -11
15 -10 9 10 -5 13 -3 22 3 22 6 0 11 8 11 18 0 11 -3 13 -8 5 -14 -22 -56 -32
-75 -18 -16 12 -16 13 3 18 13 3 18 1 13 -6 -4 -7 0 -8 11 -4 10 4 22 7 27 7
6 0 7 6 3 13 -4 6 -4 9 1 5 4 -4 16 -3 26 3 16 8 17 12 7 23 -7 8 -15 12 -18
11 -3 -2 -12 1 -20 6 -13 8 -13 10 -1 18 7 5 10 14 7 20 -4 6 -2 11 4 11 6 0
8 5 5 10 -5 8 -11 8 -20 0 -10 -8 -15 -8 -21 1 -4 8 -3 9 4 5 7 -4 12 -1 12 7
0 10 8 13 25 9 15 -2 25 0 25 7 0 6 -4 11 -10 11 -5 0 -10 7 -10 15 0 8 -6 15
-14 15 -8 0 -17 4 -20 9 -3 4 13 6 35 4 31 -4 40 -2 34 7 -6 9 -3 9 13 1 25
-13 32 -14 32 -3 0 5 -11 14 -24 22 -24 12 -24 13 -6 32 15 17 21 18 39 6 12
-7 21 -17 21 -23 0 -5 6 -3 13 5 11 14 14 14 30 -3 19 -19 18 -19 -5 -12 -22
7 -22 6 -5 -11 14 -16 21 -17 37 -6 13 8 20 9 20 1 0 -17 27 -39 47 -38 15 0
15 1 -3 9 -23 9 -40 50 -21 50 7 0 27 -9 45 -20 31 -19 32 -19 32 -1 0 10 -7
21 -15 25 -8 3 -15 10 -15 15 0 6 7 7 17 4 10 -4 14 -2 9 5 -3 6 -2 13 3 17 5
3 14 -3 20 -12 9 -17 10 -17 16 -1 7 18 25 15 25 -3 0 -6 -4 -7 -10 -4 -5 3
-10 1 -10 -4 0 -6 4 -11 8 -11 5 0 18 -13 30 -30 26 -34 22 -40 -7 -9 -14 15
-21 17 -27 8 -9 -15 34 -52 53 -45 8 3 32 -3 54 -14 33 -17 39 -18 39 -5 0 8
-3 14 -7 13 -21 -5 -53 15 -53 33 0 11 -4 17 -10 14 -5 -3 -8 0 -5 7 3 7 16
14 29 14 19 1 23 -2 19 -15 -4 -11 -3 -13 5 -6 9 8 9 20 0 48 -13 42 -20 45
-48 17 -17 -17 -21 -18 -26 -5 -3 8 -10 12 -15 9 -5 -3 -6 2 -3 11 6 14 7 14
18 0 11 -15 14 -14 30 4 11 12 16 24 12 28 -3 4 8 23 26 42 31 33 30 33 -10
-4 -41 -38 -53 -53 -32 -40 6 3 10 1 10 -4 0 -13 -10 -14 -30 -1 -12 8 -9 15
21 42 33 31 109 135 109 149 0 4 -8 10 -17 13 -10 4 -14 4 -10 0 3 -4 -5 -20
-18 -36 -14 -16 -25 -33 -25 -37 0 -4 -11 -13 -25 -19 -14 -6 -25 -20 -25 -30
0 -10 -6 -26 -13 -37 -13 -16 -14 -15 -9 14 2 17 18 46 35 64 43 45 67 88 67
117 0 20 -2 22 -10 10 -8 -13 -10 -12 -10 3 0 18 30 117 35 117 5 0 -2 -55
-10 -73 -4 -10 -5 -21 -1 -24 14 -15 63 148 50 169 -4 7 -2 8 4 4 17 -10 15
10 -4 47 -25 48 -93 109 -158 141 -51 25 -61 27 -70 14 -6 -8 -19 -15 -28 -15
-21 0 -24 13 -6 19 7 3 -6 5 -30 6 -23 1 -42 -3 -42 -8z"/>
<path d="M5761 9310 c-3 -57 -5 -61 -11 -30 l-7 35 -2 -35 -1 -35 -13 25 c-7
14 -9 27 -5 28 4 2 8 11 8 19 0 12 -3 13 -15 3 -16 -13 -13 -107 5 -156 6 -14
8 -29 5 -34 -3 -4 2 -13 10 -20 11 -9 15 -9 15 -1 0 7 4 10 9 7 5 -3 16 6 26
20 9 14 19 23 22 20 10 -10 43 25 43 45 0 19 33 43 43 32 4 -3 3 7 -2 23 -4
16 -6 35 -4 42 3 7 -4 12 -17 12 -16 0 -20 -4 -15 -19 8 -27 -10 -68 -35 -76
-11 -3 -27 -19 -35 -34 -14 -29 -51 -40 -40 -13 17 45 26 104 22 152 l-3 55
-3 -65z"/>
<path d="M5544 9345 c2 -11 8 -31 11 -44 11 -36 13 -83 4 -111 -7 -25 -7 -25
-8 4 -1 33 -13 28 -17 -7 -1 -12 -3 -22 -4 -22 -1 0 -7 -31 -14 -69 -10 -57
-10 -65 1 -50 7 10 13 14 13 9 0 -23 49 49 53 77 l4 33 1 -33 c1 -18 6 -31 11
-27 5 3 12 -4 16 -15 4 -11 11 -17 17 -14 7 4 6 9 -2 14 -8 5 -7 9 5 13 9 4
13 3 10 -3 -9 -14 5 -12 25 3 9 6 1 -2 -17 -20 -18 -17 -33 -34 -33 -37 0 -6
98 40 110 51 3 3 -3 11 -14 18 -11 9 -16 20 -12 30 7 20 -3 67 -13 60 -4 -2
-6 9 -3 24 2 16 -1 32 -7 35 -6 4 -11 2 -11 -4 0 -6 -5 -8 -11 -5 -6 4 -8 13
-5 21 3 8 1 14 -4 14 -6 0 -10 17 -10 38 l-1 37 -15 -34 c-8 -19 -12 -44 -9
-55 5 -15 4 -17 -3 -8 -7 11 -10 10 -16 -3 -3 -9 -6 -27 -6 -40 0 -36 -15 -38
-16 -2 -1 17 5 37 12 44 10 10 11 21 4 39 -6 14 -8 30 -5 35 4 5 -1 6 -10 2
-10 -3 -21 0 -27 8 -7 11 -8 9 -4 -6z"/>
<path d="M7003 9257 c3 -26 0 -49 -10 -64 -28 -43 11 -77 56 -49 10 6 12 3 7
-10 -4 -14 1 -22 22 -32 44 -19 140 -117 128 -130 -3 -3 -6 -2 -6 1 0 4 -12 2
-26 -3 -18 -7 -23 -7 -18 1 7 12 -15 31 -28 23 -19 -12 16 -45 64 -59 58 -17
73 -9 57 33 -5 13 -7 27 -4 32 3 5 1 11 -5 15 -6 4 -8 10 -5 15 3 5 1 11 -5
15 -5 3 -10 1 -10 -5 0 -7 -17 5 -37 26 -21 20 -38 42 -38 48 0 6 -10 10 -22
8 -14 -2 -26 4 -33 17 -6 12 -20 21 -32 21 -12 0 -18 3 -15 7 4 3 -2 12 -12
19 -16 11 -18 20 -11 49 4 19 5 35 1 35 -3 0 0 4 7 9 10 6 8 10 -8 14 -20 5
-21 3 -17 -36z"/>
<path d="M4209 9073 c-19 -23 -81 -73 -88 -73 -3 0 -13 4 -21 10 -12 8 -12 11
3 28 9 10 17 23 17 28 0 5 -7 0 -15 -10 -8 -11 -15 -14 -15 -7 0 7 -4 10 -9 6
-6 -3 -7 -15 -4 -28 3 -12 6 -30 6 -39 1 -13 4 -14 14 -6 17 14 30 1 15 -14
-19 -19 -14 -28 14 -28 l27 0 -37 -33 c-39 -37 -39 -51 2 -36 24 9 25 9 11 -8
-8 -10 -21 -30 -29 -45 -7 -16 -15 -26 -17 -24 -3 2 1 14 7 26 6 12 9 24 6 28
-10 10 -18 -5 -23 -48 -6 -40 -5 -42 14 -31 12 6 24 22 27 36 4 14 13 25 21
25 9 0 13 7 10 18 -3 9 2 2 10 -15 15 -33 29 -41 39 -24 4 5 0 12 -6 14 -7 3
-2 6 11 6 13 1 30 9 37 19 7 9 14 12 14 5 0 -6 -5 -15 -10 -18 -6 -4 -8 -11
-5 -16 4 -5 2 -9 -3 -9 -6 0 -12 -7 -16 -15 -7 -20 61 -88 81 -80 13 4 14 3 3
-10 -7 -8 -16 -12 -21 -9 -14 8 -12 3 26 -66 19 -37 34 -56 34 -45 0 11 -6 31
-14 45 -8 14 -14 34 -14 45 0 17 2 15 15 -7 21 -39 28 -35 21 12 -3 27 -1 40
6 41 7 0 1 5 -13 11 -16 6 -20 12 -12 15 10 4 10 10 -3 29 -8 13 -11 24 -6 24
5 0 11 -6 14 -12 3 -10 7 -10 20 1 15 11 17 11 17 -2 0 -8 -6 -18 -12 -20 -8
-4 -4 -8 10 -12 12 -4 22 -12 22 -17 0 -5 -5 -6 -12 -2 -7 4 -8 3 -4 -4 9 -15
36 -4 36 14 0 8 -3 13 -7 13 -22 -4 -32 3 -27 16 4 8 11 12 17 8 5 -3 16 2 24
12 12 18 13 18 13 -2 0 -12 5 -25 10 -28 7 -4 8 3 4 22 -10 35 -8 63 5 76 6 6
7 -4 4 -27 -3 -22 0 -36 6 -36 6 0 10 3 10 8 -3 18 3 46 8 35 2 -7 12 -13 20
-13 9 0 13 6 10 14 -4 10 -1 13 8 10 7 -3 22 3 33 14 23 23 69 41 58 23 -4 -6
-2 -11 3 -11 15 0 14 37 -1 43 -10 4 -9 8 2 17 13 10 12 11 -3 6 -10 -3 -46 0
-80 7 -48 10 -79 11 -134 2 -58 -9 -73 -9 -77 2 -4 8 3 13 19 13 13 0 27 5 31
12 5 8 2 9 -10 5 -9 -4 -28 0 -41 9 -23 15 -24 14 -39 -14 -8 -16 -22 -32 -31
-36 -14 -5 -14 -1 2 26 10 18 24 39 31 46 6 7 12 18 12 24 0 6 7 16 17 23 13
9 13 14 3 20 -8 5 -11 4 -7 -2 4 -6 0 -14 -9 -17 -12 -5 -15 -2 -10 10 5 13 0
12 -27 -5 -26 -16 -34 -17 -34 -6 0 8 4 12 8 9 4 -2 10 0 14 6 11 17 -20 11
-36 -7z"/>
<path d="M6900 8881 c0 -5 -21 -12 -47 -16 -26 -4 -56 -13 -67 -21 -27 -18
-42 -18 -26 1 15 18 -1 20 -18 3 -7 -7 -8 -17 -1 -29 8 -17 7 -18 -14 -10 -16
6 -31 4 -47 -5 l-25 -15 25 6 25 6 -25 -15 -25 -14 30 -4 c17 -1 29 -8 28 -14
-1 -8 6 -10 20 -7 21 5 21 5 4 -9 -17 -13 -16 -14 17 -26 29 -11 41 -10 86 7
38 14 48 16 39 5 -6 -8 -20 -14 -30 -14 -21 0 -37 -19 -17 -21 7 -1 16 -1 21
0 4 0 7 -3 7 -8 0 -6 12 -12 28 -14 15 -3 5 -3 -22 -1 -27 2 -67 13 -89 24
-28 15 -43 18 -50 11 -8 -8 -6 -11 6 -11 9 0 31 -9 49 -20 18 -11 41 -20 51
-20 36 0 15 -19 -25 -23 l-43 -4 45 -1 c25 -1 52 2 60 8 8 5 19 5 25 1 13 -10
127 -41 146 -40 8 0 -3 9 -24 18 -29 14 -35 20 -22 25 19 7 153 -21 175 -37 8
-6 5 0 -8 15 -23 26 -115 67 -155 69 -12 1 -4 5 18 8 22 3 42 3 45 -1 12 -15
61 -27 82 -19 19 7 16 9 -21 15 -24 3 -49 13 -57 21 -8 8 -34 19 -57 25 -23 6
-48 13 -55 15 -21 7 -4 24 18 18 14 -4 20 0 20 10 0 13 -6 14 -32 6 -51 -14
-53 -11 -17 21 19 16 28 30 22 30 -7 0 -13 -4 -13 -10 0 -5 -15 -10 -32 -10
-18 0 -59 -11 -91 -24 -64 -27 -66 -25 -10 11 38 24 38 24 8 18 -43 -8 -48
-10 -65 -20 -12 -8 -12 -5 1 15 11 16 30 27 55 32 69 12 93 20 105 34 9 11 7
14 -10 14 -11 0 -21 -4 -21 -9z"/>
<path d="M4144 8785 c-4 -8 -12 -15 -20 -15 -7 0 -18 -8 -23 -17 -6 -10 -11
-13 -11 -8 0 6 -9 -1 -20 -15 -11 -14 -20 -19 -20 -12 0 7 -4 10 -10 7 -5 -3
-10 -27 -9 -53 1 -44 1 -45 10 -17 5 17 17 40 27 52 15 19 19 20 30 7 10 -11
10 -14 0 -14 -30 -1 -44 -21 -47 -67 -1 -7 -9 -13 -18 -14 -11 0 -13 -3 -5 -6
15 -6 16 -53 1 -53 -6 0 -8 9 -4 20 5 14 2 20 -10 20 -20 0 -36 -41 -23 -57 5
-7 8 -18 6 -24 -2 -7 -11 3 -21 22 -9 20 -12 35 -6 37 6 3 6 8 0 16 -6 7 -7
26 -2 49 6 25 6 35 -2 30 -6 -4 -8 2 -5 15 4 12 2 22 -3 22 -5 0 -9 9 -9 19 0
10 -6 21 -14 24 -9 4 -13 -3 -12 -24 1 -18 6 -29 15 -29 11 0 10 -5 -4 -20
-10 -11 -15 -23 -12 -27 4 -3 7 -1 7 5 0 7 5 12 10 12 12 0 13 -20 2 -38 -10
-15 -38 -6 -46 14 -3 9 -1 12 4 9 6 -3 10 3 10 14 0 36 -25 13 -38 -34 -14
-53 -16 -98 -3 -91 4 3 6 -6 3 -19 -5 -27 -22 -35 -22 -10 0 8 -5 15 -11 15
-7 0 -9 -13 -6 -37 3 -21 3 -30 1 -20 -3 9 -10 17 -15 17 -6 0 -8 -8 -4 -19 7
-22 -40 -60 -48 -38 -4 9 -7 9 -18 0 -9 -9 -9 -13 -1 -13 6 0 9 -7 5 -17 -5
-14 -8 -13 -15 6 l-8 22 -24 -26 c-14 -15 -27 -26 -31 -25 -4 1 -9 -1 -12 -4
-10 -10 17 -7 38 4 26 14 24 4 -6 -28 -30 -32 -34 -53 -5 -27 11 10 20 14 20
8 0 -13 -81 -83 -95 -83 -14 0 -57 -44 -51 -51 3 -3 -4 -6 -16 -6 -18 -2 -16
3 17 37 26 27 36 44 31 56 -11 29 -80 -80 -71 -113 3 -15 2 -29 -3 -32 -6 -3
-12 -19 -15 -36 -3 -16 -8 -38 -12 -47 -12 -30 4 -20 20 13 9 17 19 29 22 26
2 -3 -2 -16 -10 -29 -8 -12 -18 -34 -22 -48 -6 -23 -3 -22 27 11 19 20 44 40
57 44 12 4 20 9 17 12 -3 3 9 19 25 37 17 17 37 46 45 64 13 28 29 38 58 33 5
-1 6 4 3 12 -3 8 19 41 53 77 57 61 60 63 78 47 10 -9 21 -16 23 -14 2 2 -38
-39 -88 -90 -51 -51 -93 -97 -93 -102 0 -5 -7 -11 -15 -15 -8 -3 -15 -10 -15
-15 0 -5 -15 -25 -32 -43 -31 -33 -54 -62 -88 -113 -8 -12 -28 -40 -43 -63
-16 -22 -29 -46 -31 -54 -1 -7 -5 -19 -9 -25 -5 -7 -5 -13 0 -13 9 0 53 45 53
53 0 3 11 18 25 33 14 15 25 31 25 36 0 17 52 78 62 72 17 -11 37 16 32 44 -3
21 -2 24 6 12 9 -13 12 -13 24 2 7 10 16 15 19 11 4 -3 7 -1 7 5 0 7 5 12 10
12 6 0 10 -7 10 -15 0 -19 14 -19 30 0 10 12 10 19 1 28 -8 8 -14 8 -19 2 -4
-6 -14 -10 -22 -10 -17 0 -35 23 -26 32 3 4 6 1 6 -5 0 -15 36 -16 45 -2 4 6
11 8 16 5 5 -3 6 1 3 9 -3 8 2 17 13 20 10 3 19 16 20 28 1 12 9 26 18 30 8 5
15 16 15 25 0 14 -3 13 -22 -3 l-22 -19 21 30 c11 17 30 39 42 49 19 17 21 18
21 2 0 -9 -4 -15 -9 -12 -5 3 -12 -1 -15 -9 -4 -12 0 -14 18 -9 33 8 46 -29
20 -57 -9 -10 -15 -22 -11 -25 3 -3 11 3 18 15 12 18 15 19 30 5 10 -9 15 -24
12 -37 -5 -21 -5 -21 9 -4 14 19 48 15 48 -6 0 -8 -3 -8 -11 0 -9 9 -16 6 -29
-9 -19 -24 -66 -37 -54 -16 4 7 -2 5 -13 -4 -11 -10 -35 -18 -53 -18 -50 0
-33 -7 33 -14 32 -3 55 -2 53 3 -3 5 3 11 14 14 17 4 18 3 5 -17 -9 -14 -27
-23 -47 -24 -18 -2 -35 -7 -38 -11 -3 -5 -25 -14 -50 -19 -34 -8 -38 -11 -15
-10 46 0 48 -1 34 -19 -12 -15 -12 -16 4 -10 10 4 21 7 23 7 3 0 2 6 -2 13 -5
9 -4 9 6 0 10 -9 7 -21 -13 -57 -14 -25 -22 -46 -18 -46 5 0 19 20 32 45 13
25 30 45 36 45 15 0 17 -26 3 -35 -5 -3 -15 -16 -21 -28 -9 -18 -7 -17 15 5
15 15 25 31 24 35 -2 3 19 16 47 28 l49 22 -58 -5 c-46 -4 -58 -2 -54 9 2 7
10 15 18 17 8 3 10 0 5 -8 -6 -10 -4 -11 6 -4 8 5 16 9 19 9 3 0 14 8 25 18
28 26 97 69 115 72 8 2 24 4 35 5 17 2 17 3 -4 9 -24 6 -24 7 13 38 44 39 48
55 5 18 -18 -14 -38 -24 -45 -21 -8 3 -14 -1 -14 -10 0 -18 -52 -64 -91 -81
-23 -10 -27 -9 -22 3 3 7 9 11 14 8 5 -3 14 5 20 18 6 13 20 25 31 25 12 1 26
7 32 14 8 9 8 10 -1 5 -7 -4 -13 -3 -13 1 0 5 6 15 13 22 10 10 9 11 -5 6 -13
-5 -15 -2 -11 13 8 31 -14 35 -38 8 l-21 -25 -26 24 c-16 15 -23 29 -19 40 4
9 3 14 -2 11 -11 -7 -23 22 -15 36 3 5 -2 16 -12 24 -18 14 -18 14 4 4 12 -6
22 -18 23 -28 1 -11 4 -8 9 8 l8 25 1 -27 c1 -29 16 -45 24 -26 3 7 6 3 6 -10
1 -13 -3 -20 -9 -17 -5 3 -10 2 -10 -3 0 -15 30 -23 48 -12 10 5 14 10 9 10
-15 0 26 50 42 50 10 0 12 -3 5 -8 -18 -12 -23 -50 -7 -56 8 -3 12 -2 9 2 -6
9 29 42 44 42 6 0 10 -4 10 -10 0 -5 4 -10 10 -10 5 0 6 7 3 17 -5 12 -3 14 7
8 10 -6 12 -4 7 10 -6 14 -3 16 13 12 11 -3 20 -2 20 3 0 4 10 10 23 13 21 6
21 5 3 -8 -11 -8 -17 -17 -14 -20 3 -3 16 3 28 13 24 19 22 61 -1 46 -8 -4 -9
-3 -5 4 4 7 16 12 27 12 17 0 18 3 9 21 -7 11 -8 24 -4 27 4 4 9 1 11 -5 6
-17 20 -16 26 1 4 11 1 13 -11 9 -15 -6 -16 -5 -2 12 14 17 14 18 -10 5 -14
-8 -29 -13 -34 -12 -5 2 -6 -4 -3 -13 7 -18 3 -19 -23 -5 -13 7 -21 7 -25 0
-3 -5 -11 -10 -16 -10 -35 0 73 60 136 76 37 9 31 36 -19 88 -44 47 -48 58 -9
31 20 -14 20 -12 -5 32 -14 27 -34 57 -44 67 -10 11 -18 26 -18 33 0 12 -12
17 -32 14 -4 0 -5 5 -3 12 3 6 -4 18 -15 25 -17 10 -21 10 -26 -3z"/>
<path d="M7397 8473 c5 -13 2 -15 -12 -10 -15 6 -16 5 -5 -8 7 -9 16 -12 19
-8 10 13 39 11 45 -3 4 -9 -2 -14 -15 -14 -11 0 -17 -5 -14 -10 3 -6 18 -8 33
-4 26 5 26 5 8 -10 -19 -15 -11 -22 19 -16 6 1 7 -2 3 -5 -4 -4 3 -16 15 -26
50 -42 -12 -13 -76 35 -21 15 -40 26 -42 24 -6 -5 81 -72 118 -91 15 -8 23
-17 19 -22 -4 -4 2 -5 13 -2 13 4 30 -2 48 -17 27 -21 27 -24 9 -28 -13 -4
-19 -1 -18 10 0 8 -6 17 -14 20 -13 5 -13 3 -1 -11 29 -35 -15 -17 -60 24 -44
41 -112 89 -126 89 -4 0 8 -13 27 -30 40 -33 27 -41 -14 -9 -15 12 -29 19 -32
16 -8 -8 52 -47 73 -47 10 0 32 -9 48 -20 36 -24 26 -26 -16 -4 -17 8 -37 13
-45 10 -7 -3 -16 -1 -20 5 -3 6 -12 8 -20 5 -8 -3 -29 3 -47 14 -17 11 -38 20
-46 20 -15 0 92 -59 118 -65 9 -2 30 -8 46 -14 22 -7 25 -10 10 -11 -17 -1
-17 -3 5 -11 14 -6 44 -8 67 -4 25 3 44 2 48 -5 3 -5 11 -10 16 -10 6 0 8 4 4
9 -3 6 4 8 16 6 26 -5 35 -13 25 -22 -4 -4 -11 -1 -15 6 -5 7 -11 9 -14 4 -6
-10 -89 -8 -145 2 -23 4 -32 3 -27 -4 3 -6 18 -11 33 -11 16 0 22 -3 15 -8 -8
-5 -2 -12 19 -21 17 -8 33 -22 35 -32 3 -10 9 -17 13 -14 10 6 35 -23 27 -32
-4 -3 -25 7 -47 22 -22 15 -43 26 -45 23 -3 -3 7 -13 22 -23 15 -10 39 -32 55
-49 15 -17 28 -26 28 -21 0 14 50 -37 66 -67 8 -15 14 -30 14 -33 0 -3 7 -13
16 -22 8 -10 29 -36 46 -58 24 -31 29 -35 23 -15 l-8 25 26 -27 c38 -41 43
-15 8 38 -17 25 -31 47 -31 50 0 9 25 -20 53 -61 24 -35 33 -39 28 -12 -1 5
-3 22 -5 38 -3 25 -1 28 12 17 8 -7 21 -28 29 -47 8 -18 17 -31 19 -28 3 3 1
15 -6 26 -6 12 -8 25 -6 30 3 5 -1 12 -10 15 -8 3 -13 10 -10 15 3 5 -1 11 -9
15 -8 3 -12 12 -9 20 3 9 -9 29 -31 50 -20 20 -31 36 -23 36 9 0 10 3 2 8 -21
13 -53 96 -41 104 6 4 15 4 21 1 5 -3 6 -1 2 6 -4 6 -11 9 -16 6 -5 -3 -11 -1
-15 5 -3 5 -1 10 5 10 6 0 -3 12 -20 27 -17 14 -36 37 -41 51 -6 17 -15 23
-28 19 -14 -3 -17 0 -13 19 3 17 0 24 -12 25 -9 1 -22 2 -28 3 -7 0 -13 10
-13 21 0 13 -8 21 -22 23 -13 2 -23 8 -23 13 0 5 -6 9 -14 9 -7 0 -33 16 -57
35 -48 38 -72 45 -62 18z"/>
<path d="M7254 8157 c2 -17 64 -97 88 -115 10 -7 16 -17 13 -22 -3 -4 -2 -10
3 -12 9 -4 84 -108 77 -108 -3 0 -21 18 -41 40 -20 22 -42 40 -50 40 -7 0 -30
14 -51 32 l-38 32 30 -34 c17 -19 35 -38 40 -42 6 -4 6 -8 2 -8 -4 0 4 -16 19
-35 25 -34 22 -49 -5 -22 -7 6 -4 -3 7 -22 11 -18 18 -40 15 -47 -3 -8 -1 -14
4 -14 4 0 14 -10 22 -22 11 -20 9 -19 -16 5 -42 39 -57 34 -31 -10 11 -21 22
-60 24 -88 4 -69 10 -111 18 -124 4 -6 3 -11 -2 -11 -10 0 24 -108 46 -147 8
-15 9 -23 2 -23 -5 0 -10 3 -10 8 0 4 -14 23 -30 42 l-30 35 6 -30 c4 -16 13
-37 20 -46 16 -18 18 -33 4 -24 -5 3 -10 0 -10 -8 0 -7 11 -20 25 -27 14 -7
24 -21 23 -29 -2 -9 3 -15 10 -13 8 1 11 -2 7 -8 -3 -5 -2 -10 4 -10 6 0 8 -6
5 -14 -7 -17 -33 -11 -51 12 -7 9 -16 13 -19 9 -4 -3 -15 -2 -25 3 -15 9 -17
6 -15 -16 2 -14 9 -30 17 -35 8 -5 10 -9 5 -9 -5 0 -3 -7 4 -15 6 -8 9 -19 5
-25 -3 -5 2 -10 12 -11 10 0 13 -3 6 -5 -8 -4 -7 -12 3 -32 8 -15 13 -46 12
-69 -1 -23 4 -49 11 -57 10 -12 11 -16 1 -16 -9 0 -8 -7 4 -25 9 -14 12 -25 6
-25 -8 0 -8 -6 0 -20 14 -27 31 -116 31 -167 1 -24 4 -43 9 -43 4 0 10 -9 13
-20 3 -12 14 -20 26 -20 12 0 21 -6 21 -12 0 -7 12 -19 27 -26 24 -11 31 -9
65 13 21 14 42 25 48 25 6 0 8 5 5 11 -9 14 44 59 78 66 20 4 25 8 16 14 -9 5
-4 10 15 15 23 5 32 2 50 -21 l23 -28 19 31 c10 18 22 32 27 32 4 0 3 9 -3 20
-8 15 -8 20 2 20 7 0 29 15 49 34 20 19 46 36 59 38 17 2 27 14 37 44 8 24 24
46 38 54 34 18 32 38 -2 34 -16 -2 -20 -1 -10 2 9 3 17 10 17 16 0 5 6 8 13 5
6 -2 18 2 25 9 11 12 8 14 -17 14 -33 0 -81 19 -81 32 0 4 -6 8 -14 8 -8 0
-18 5 -21 10 -4 6 -3 9 2 8 11 -4 15 5 9 22 -3 8 -9 31 -15 50 -8 29 -9 31
-10 10 -2 -24 -2 -24 -14 -5 -6 11 -12 62 -13 115 -2 96 -8 152 -19 170 -3 6
-8 19 -10 30 -4 20 -106 179 -130 203 -6 7 -18 24 -25 37 -8 15 -15 20 -18 12
-4 -14 -22 -7 -22 9 0 6 4 8 9 5 5 -4 11 -1 13 5 2 6 15 -5 28 -24 17 -25 27
-32 33 -24 6 8 7 6 3 -6 -4 -12 8 -37 34 -73 23 -30 43 -54 45 -54 7 0 -17 53
-33 71 -10 13 -10 18 -1 21 8 3 7 9 -5 20 -9 9 -16 20 -16 24 0 4 -7 16 -17
26 -10 12 -12 18 -4 18 7 0 9 4 6 10 -3 5 -24 8 -46 6 -22 -2 -42 1 -45 5 -3
5 -10 6 -16 3 -6 -4 -8 -2 -5 3 9 14 -14 31 -36 28 -9 -2 -15 1 -11 6 3 5 0 9
-7 9 -9 0 -9 3 0 14 8 10 9 16 1 21 -6 4 -9 1 -8 -6 5 -21 -19 -20 -25 2 -3
11 -10 18 -15 15 -6 -3 -25 8 -42 24 -54 51 -44 27 13 -31 30 -31 53 -62 51
-72 -1 -9 2 -17 7 -17 5 0 9 -5 9 -12 0 -6 -9 -3 -20 7 -11 10 -20 24 -20 30
0 17 -39 65 -52 65 -6 0 -6 -6 2 -15 8 -9 8 -15 2 -15 -6 0 -14 9 -17 20 -9
27 -85 100 -105 100 -13 0 -13 2 0 11 13 8 12 10 -4 7 -11 -2 -34 12 -56 35
-21 20 -47 37 -58 37 -11 0 -22 8 -25 19 -6 23 -46 49 -43 28z"/>
<path d="M3634 7925 c3 -9 -1 -18 -9 -21 -8 -4 -12 -10 -9 -15 8 -13 -10 -11
-25 4 -9 7 -11 7 -8 1 4 -7 0 -15 -9 -18 -8 -3 -12 -10 -9 -16 3 -6 -6 -18
-22 -27 -15 -9 -39 -30 -53 -47 -21 -28 -22 -29 -2 -12 29 26 28 11 -1 -17
-13 -12 -22 -29 -20 -37 4 -13 3 -13 -6 0 -7 10 -6 18 1 27 7 9 7 13 -1 13 -7
0 -9 5 -5 12 5 7 3 8 -5 4 -7 -5 -10 -11 -7 -14 4 -3 -2 -15 -13 -26 -26 -30
-34 -66 -13 -66 11 0 13 -3 6 -8 -16 -11 -66 -143 -60 -159 3 -8 2 -12 -3 -9
-11 7 -21 -17 -21 -48 0 -12 -4 -26 -9 -32 -13 -14 -22 -60 -13 -68 4 -4 7
-33 8 -64 1 -57 38 -197 55 -208 5 -3 7 -10 4 -15 -5 -8 6 -13 26 -11 7 1 3
-73 -4 -85 -3 -5 -2 -27 3 -49 5 -21 8 -41 7 -43 -1 -2 21 -12 48 -23 48 -18
103 -64 98 -80 -2 -5 2 -8 8 -8 5 0 8 -4 4 -9 -3 -6 5 -15 17 -22 13 -6 32
-20 43 -31 11 -10 29 -25 40 -33 19 -14 19 -14 -5 -15 -25 -1 -25 -1 -2 -10
12 -5 22 -17 22 -25 0 -10 -5 -13 -12 -9 -9 5 -8 2 1 -10 11 -13 16 -14 22 -4
6 9 9 8 9 -6 0 -11 3 -16 6 -13 4 3 14 2 23 -2 27 -15 53 12 48 48 -3 17 -2
33 3 36 4 2 10 14 13 25 3 13 1 18 -6 13 -7 -4 -8 0 -3 13 15 35 18 84 6 84
-6 0 -8 5 -3 13 11 18 13 146 3 152 -6 3 -7 0 -4 -8 3 -8 -2 -17 -10 -20 -9
-4 -16 -2 -16 3 0 6 -8 10 -17 10 -15 0 -16 2 -3 9 8 6 18 7 22 5 4 -3 8 0 8
6 0 7 -6 10 -14 7 -23 -9 -29 63 -13 156 4 20 10 54 13 74 4 27 8 33 15 22 5
-8 9 -9 9 -2 0 6 3 20 6 30 5 15 4 15 -5 3 -6 -8 -11 -11 -11 -6 0 18 -29 -29
-30 -49 l-1 -20 -8 20 c-5 11 -4 25 1 33 7 8 7 12 -1 12 -6 0 -11 9 -11 20 0
11 5 20 11 20 6 0 9 6 6 13 -2 6 2 26 10 44 17 42 17 64 -1 41 -7 -10 -16 -15
-19 -11 -4 3 -7 0 -7 -8 0 -8 -5 -21 -10 -29 -8 -13 -12 -11 -27 10 -17 24
-26 63 -12 54 9 -5 19 9 24 38 3 13 12 29 22 36 20 14 9 16 -17 2 -29 -15 -31
2 -9 65 23 67 21 95 -5 41 -9 -20 -22 -34 -28 -30 -7 4 -5 9 3 15 8 5 11 9 7
9 -4 0 -3 13 2 29 7 25 6 29 -8 23 -14 -4 -15 -3 -6 9 6 8 14 31 18 52 4 20
11 37 16 37 4 0 6 9 3 19 -3 10 3 31 12 45 10 14 13 26 7 26 -6 0 -13 -6 -15
-12 -4 -10 -6 -10 -6 0 -1 7 -5 10 -11 7 -5 -3 -7 0 -4 9 3 8 12 12 19 10 10
-4 12 1 9 18 -2 13 -2 17 2 11 3 -7 10 -13 15 -13 6 0 9 6 7 13 -1 6 3 22 10
35 13 23 8 27 -28 22 -19 -2 -46 -27 -38 -35 3 -3 13 1 22 10 9 9 16 12 16 7
0 -16 -28 -34 -41 -26 -9 5 -10 2 -6 -9 3 -10 2 -17 -3 -17 -13 0 -13 17 1 42
10 18 9 20 -5 15 -10 -4 -15 -3 -11 2 7 12 -5 41 -17 41 -6 0 -7 -7 -4 -15z"/>
<path d="M6470 6641 c0 -5 -19 -12 -42 -16 -24 -4 -49 -9 -56 -11 -7 -1 -34
-17 -60 -34 -41 -29 -40 -32 6 -13 10 4 16 -13 14 -38 -1 -3 5 -6 13 -6 8 0
14 3 13 6 -2 22 5 31 22 31 11 0 23 6 26 14 5 13 45 14 110 0 21 -4 42 -54 23
-54 -5 0 2 -10 14 -23 12 -13 26 -21 31 -19 5 3 1 9 -8 14 -15 8 -23 48 -10
48 12 0 29 -26 32 -48 2 -16 -4 -25 -22 -32 -14 -5 -26 -16 -26 -25 0 -9 -9
-15 -21 -15 -19 0 -21 4 -16 45 3 25 9 50 12 55 3 5 -9 17 -27 26 -30 14 -37
14 -68 0 -19 -8 -30 -15 -23 -16 7 0 10 -6 7 -14 -3 -7 2 -20 10 -29 9 -9 16
-20 16 -26 0 -7 8 -7 24 -1 19 7 26 5 30 -6 10 -27 7 -37 -8 -25 -10 8 -16 9
-21 1 -10 -15 -74 -12 -92 5 -13 13 -19 30 -22 58 -1 4 -5 7 -10 7 -13 0 -2
-42 17 -68 18 -24 64 -37 91 -27 9 4 42 8 75 9 68 3 91 24 102 94 3 23 9 42
12 42 15 0 82 -54 82 -66 0 -8 6 -15 13 -16 23 -2 32 -4 72 -16 51 -15 58 -15
52 2 -3 7 -1 18 5 24 7 7 -2 14 -32 22 -23 6 -69 28 -103 49 -73 43 -130 71
-149 71 -10 0 -9 3 2 10 9 6 10 10 3 10 -6 0 -20 3 -30 7 -15 6 -16 4 -6 -8
10 -13 10 -16 -2 -16 -8 0 -15 6 -15 14 0 8 -12 13 -30 13 -16 0 -30 -4 -30
-9z"/>
<path d="M4746 6513 c-1 -1 -29 -5 -62 -8 -32 -4 -68 -8 -79 -10 -11 -2 -33
-4 -50 -6 -24 -1 -26 -3 -7 -6 12 -2 22 -9 22 -15 0 -5 -7 -7 -15 -4 -9 3 -18
-1 -21 -9 -4 -8 -14 -15 -24 -15 -28 0 -50 -11 -50 -24 0 -16 -39 -48 -50 -41
-6 4 -10 -2 -11 -12 0 -11 -3 -13 -6 -5 -3 9 -11 8 -31 -6 -15 -10 -36 -22
-47 -27 -19 -8 -20 -8 -1 -13 19 -4 19 -5 -2 -21 -22 -16 -22 -17 16 -15 52 1
132 40 132 64 0 10 22 34 50 54 49 35 58 34 51 -7 -1 -5 3 -26 9 -48 14 -52
41 -62 150 -55 95 5 116 11 124 32 7 19 -8 18 -25 -2 -7 -8 -21 -13 -31 -11
-10 3 -18 1 -18 -4 0 -11 -33 1 -42 15 -4 6 -9 4 -14 -7 -6 -17 -39 -22 -68
-11 -8 3 -12 12 -9 21 5 13 3 14 -18 3 -23 -12 -23 -12 -8 6 9 10 14 25 12 32
-8 20 25 14 37 -8 6 -11 16 -17 25 -14 8 4 26 -1 40 -10 21 -14 24 -14 19 -1
-4 11 0 15 16 15 16 0 20 4 16 15 -3 9 6 25 21 39 21 20 30 23 46 14 17 -9 19
-8 13 7 -3 10 -2 23 4 30 8 9 8 15 0 20 -5 3 -10 11 -10 16 0 11 123 4 144 -8
8 -4 8 -2 1 5 -5 6 -30 14 -55 17 -56 9 -191 21 -194 18z"/>
<path d="M6080 5400 c-8 -5 -34 -10 -57 -10 -62 0 -160 -43 -228 -100 -46 -38
-73 -52 -115 -60 -30 -6 -72 -16 -92 -22 -52 -15 -97 -5 -175 39 -83 46 -80
45 -173 49 -82 3 -83 4 62 -38 37 -10 73 -24 80 -31 40 -37 145 -77 174 -66
45 17 61 21 99 23 38 2 107 40 159 88 11 10 26 18 33 18 7 0 13 5 13 10 0 6 5
10 11 10 5 0 34 11 63 24 30 14 69 28 88 31 33 6 105 45 83 45 -5 0 -17 -5
-25 -10z"/>
<path d="M6314 4973 c-6 -4 -13 -29 -16 -55 -8 -69 -21 -81 -66 -63 -19 9 -36
14 -36 13 -1 -2 -7 -18 -13 -37 -12 -33 -12 -33 15 -28 68 12 237 101 226 119
-3 5 9 13 26 20 17 6 28 14 23 19 -12 12 -146 22 -159 12z"/>
<path d="M7081 4654 l-23 -12 22 -7 c20 -6 20 -8 4 -19 -9 -7 -14 -18 -10 -25
4 -6 4 -11 -1 -10 -19 3 -27 -2 -14 -10 19 -12 4 -51 -20 -51 -18 0 -20 -4
-14 -31 5 -22 4 -29 -4 -25 -6 4 -8 13 -4 19 4 7 0 6 -10 -2 -9 -7 -17 -24
-17 -38 0 -14 -4 -21 -10 -18 -12 8 -13 3 0 -29 6 -17 6 -26 0 -26 -9 0 -15
17 -23 70 -3 19 -5 16 -6 -10 -1 -28 -4 -32 -12 -20 -8 11 -9 7 -5 -17 3 -18
1 -35 -4 -38 -6 -3 -10 0 -10 7 0 7 -9 2 -19 -12 -11 -13 -17 -28 -15 -32 3
-4 -2 -20 -10 -35 l-15 -28 -1 25 c0 14 -5 32 -10 40 -7 11 -10 4 -10 -25 0
-28 -6 -46 -20 -58 -22 -19 -35 -22 -25 -7 3 6 2 10 -3 10 -5 0 -13 -15 -17
-32 -7 -28 -9 -30 -12 -11 -2 12 1 32 7 44 8 15 9 19 1 15 -6 -4 -11 0 -11 9
0 9 -4 14 -9 10 -6 -3 -15 3 -21 12 -10 15 -11 16 -6 1 3 -9 8 -34 11 -55 6
-34 5 -36 -8 -20 -8 9 -18 17 -23 17 -4 0 -3 -5 4 -12 7 -7 12 -19 12 -27 -1
-16 -24 7 -63 64 -24 34 -34 25 -11 -9 17 -27 14 -44 -5 -32 -6 4 -8 12 -5 19
2 7 -5 18 -17 25 -19 12 -20 11 -17 -15 2 -20 -1 -28 -12 -28 -23 0 -30 -16
-18 -39 10 -20 10 -20 -7 -6 -17 14 -18 13 -12 -3 4 -11 9 -31 12 -45 5 -27 5
-27 -5 -3 -11 25 -22 23 -26 -7 -1 -9 -5 -28 -9 -40 -6 -18 -10 -20 -16 -10
-7 10 -9 9 -9 -5 0 -11 -5 -15 -11 -11 -8 5 -8 1 0 -14 14 -26 14 -35 1 -27
-9 6 -15 -22 -11 -52 1 -7 -3 -13 -10 -13 -16 0 -38 -31 -39 -53 0 -11 -5 -15
-11 -11 -8 4 -8 1 -1 -13 7 -12 7 -25 1 -34 -5 -7 -9 -9 -9 -4 0 6 -10 -9 -21
-33 -14 -28 -27 -41 -35 -38 -9 3 -14 -2 -14 -13 0 -12 -10 -20 -29 -24 -18
-4 -30 -14 -34 -27 -3 -12 -10 -19 -15 -16 -19 11 -29 -15 -34 -84 -1 -8 -8
-21 -16 -29 -13 -13 -14 -12 -8 6 4 12 2 24 -4 28 -7 4 -7 12 0 25 5 10 10 25
9 32 0 7 -6 1 -12 -13 -14 -29 -67 -95 -67 -82 -1 4 -7 -3 -15 -17 -13 -23
-14 -23 -16 -5 -1 17 -2 16 -9 -5 -4 -14 -8 -19 -9 -12 -1 17 -16 15 -36 -4
-13 -14 -14 -19 -3 -25 10 -7 10 -9 1 -9 -7 0 -13 -6 -13 -14 0 -8 -5 -18 -11
-21 -6 -4 -10 -1 -8 6 5 40 -1 49 -32 47 -17 -1 -35 -10 -40 -20 -6 -12 -6
-18 0 -18 5 0 12 8 14 18 4 14 5 14 6 -3 1 -29 -13 -47 -32 -39 -9 3 -15 9
-12 13 2 4 -2 8 -10 8 -8 0 -15 -10 -15 -21 0 -17 -2 -18 -9 -6 -6 8 -8 17 -5
21 2 4 -3 9 -11 13 -8 3 -14 0 -12 -7 1 -7 -6 -11 -15 -11 -10 1 -15 -2 -12
-7 9 -15 -10 -9 -36 11 -27 21 -45 26 -35 10 3 -5 1 -10 -4 -10 -14 0 -14 -27
-1 -33 6 -3 5 -4 -2 -3 -7 1 -14 14 -16 28 -4 30 -31 47 -33 20 -1 -9 -1 -20
-1 -24 1 -3 -5 -9 -13 -12 -8 -3 -15 -2 -15 3 0 5 -10 11 -23 13 -20 4 -23 1
-19 -18 2 -12 -1 -25 -7 -28 -7 -4 -9 -1 -5 8 8 20 -25 34 -36 16 -12 -20 -32
-1 -26 25 4 17 2 22 -12 21 -9 0 -20 -9 -25 -20 -4 -10 -13 -16 -20 -13 -24 9
-37 -27 -22 -57 8 -14 10 -26 5 -26 -8 0 -30 53 -30 72 0 5 6 6 13 2 8 -5 8
-3 -2 9 -13 17 -36 14 -26 -4 4 -5 1 -9 -4 -9 -6 0 -11 5 -11 11 0 15 -26 39
-34 32 -3 -4 -6 1 -6 10 0 9 -5 19 -12 23 -7 4 -8 3 -4 -4 4 -6 1 -24 -7 -38
l-14 -27 -5 31 c-2 17 -1 29 4 26 4 -3 8 2 8 10 0 9 -5 16 -11 16 -7 0 -18 8
-25 18 -8 10 -13 12 -14 5 0 -20 -20 -15 -20 5 -1 16 -1 16 -14 0 -15 -20 -26
-14 -26 14 0 22 -13 23 -34 2 -15 -14 -16 -12 -16 18 0 22 -3 29 -9 19 -5 -8
-11 -9 -15 -3 -3 6 -2 13 4 17 5 3 10 11 10 18 0 8 -3 8 -12 -1 -18 -18 -27
-15 -21 7 4 16 1 19 -19 14 -12 -3 -27 -9 -33 -14 -6 -4 -10 9 -11 37 -1 49
-10 66 -24 44 -8 -12 -10 -11 -10 6 0 27 -25 51 -34 32 -3 -7 -5 -4 -5 7 2 32
-12 65 -24 58 -6 -4 -8 0 -4 11 4 10 3 15 -3 11 -6 -3 -15 6 -20 20 -5 14 -14
24 -18 21 -4 -2 -8 11 -8 29 0 22 -7 41 -21 52 -11 10 -27 37 -33 61 -11 36
-15 40 -28 29 -13 -10 -14 -9 -8 1 12 20 14 62 4 62 -6 0 -8 6 -5 14 3 8 -1
17 -9 20 -8 3 -14 15 -14 26 0 11 -7 20 -15 20 -9 0 -15 10 -16 23 -1 21 -1
21 -9 -3 l-8 -25 -1 28 c-1 17 -7 27 -16 27 -9 0 -12 6 -8 16 4 11 8 12 13 4
5 -8 10 -8 14 -2 3 5 -1 13 -10 16 -10 4 -27 -7 -48 -29 -36 -38 -52 -45 -42
-19 5 13 2 15 -13 11 -12 -3 -22 1 -26 12 -6 14 -8 14 -14 -3 -7 -18 -8 -18
-25 0 -14 13 -17 27 -13 58 4 26 2 35 -4 25 -7 -11 -9 -11 -9 0 0 11 -3 11
-17 0 -15 -12 -16 -12 -10 3 8 22 -15 20 -26 -2 -4 -8 -5 1 -2 20 4 25 2 31
-5 20 -7 -10 -10 -11 -10 -2 0 8 -8 10 -25 6 -16 -4 -25 -2 -25 6 0 6 -4 9 -9
6 -11 -7 -22 20 -15 37 6 16 -32 17 -55 3 -9 -6 -12 -5 -8 1 3 5 -3 22 -14 39
-16 25 -19 26 -20 9 l0 -20 -8 20 c-5 11 -6 26 -3 34 3 9 1 12 -6 7 -6 -3 -20
10 -33 34 -24 43 -39 49 -59 25 -7 -8 -19 -15 -27 -15 -8 0 -11 -5 -8 -10 3
-6 -4 -14 -17 -19 l-23 -10 25 -1 25 -1 -23 -10 c-13 -5 -20 -14 -16 -20 3 -6
1 -15 -7 -19 -10 -7 -10 -11 0 -23 8 -11 9 -17 1 -22 -6 -3 -7 -12 -3 -18 4
-7 -2 -5 -12 3 -20 16 -20 19 1 -50 5 -15 2 -20 -12 -20 -23 -1 -54 -23 -54
-39 0 -6 9 -11 21 -11 11 0 18 4 15 9 -3 5 3 11 14 14 26 7 26 -8 -1 -27 -13
-9 -18 -19 -14 -27 5 -8 4 -10 -3 -5 -7 4 -12 1 -12 -8 0 -20 -30 -48 -46 -42
-7 3 -17 -1 -23 -8 -9 -10 -6 -12 14 -8 15 2 25 0 25 -7 0 -8 5 -8 19 1 11 6
17 19 14 27 -4 13 -3 14 5 2 12 -17 8 -47 -9 -67 -10 -12 -9 -18 1 -27 10 -10
11 -9 5 2 -5 9 -4 12 3 7 9 -5 8 -13 -3 -30 -9 -13 -15 -28 -14 -32 6 -21 -14
-114 -24 -114 -6 0 0 -11 14 -26 21 -22 21 -24 4 -18 -17 7 -18 5 -8 -8 13
-15 8 -28 -9 -28 -5 0 -7 4 -3 9 3 5 1 12 -4 16 -6 3 -8 -3 -6 -15 2 -11 -1
-22 -6 -26 -6 -3 0 -14 12 -25 19 -16 23 -30 23 -84 1 -37 -3 -65 -9 -65 -5 0
-3 -4 5 -9 8 -6 18 -7 22 -5 4 3 8 -2 8 -12 0 -14 -3 -14 -15 -4 -9 7 -19 10
-22 6 -4 -4 -1 -11 7 -16 8 -6 10 -10 5 -10 -6 0 -11 -9 -12 -20 -1 -12 4 -20
13 -20 8 0 13 4 9 9 -3 5 -1 12 5 16 6 4 10 -5 10 -19 0 -35 -3 -41 -17 -40
-14 2 -15 -27 -3 -66 l8 -25 1 27 c1 15 5 29 9 32 5 3 8 -10 7 -29 -2 -19 1
-35 6 -35 5 0 6 -7 3 -15 -4 -8 -1 -15 5 -15 6 0 11 11 11 24 0 13 5 26 11 28
9 3 8 10 -1 28 -8 14 -17 95 -23 198 -8 151 -7 188 7 270 10 52 24 101 32 109
8 8 14 28 14 44 0 16 5 29 10 29 6 0 9 6 8 13 -2 7 6 11 17 10 15 -1 24 7 32
27 6 17 19 30 27 30 23 0 34 36 42 133 4 45 9 76 11 70 7 -20 60 -73 73 -73 8
0 11 -9 8 -24 -3 -16 -1 -23 7 -20 6 3 17 -12 25 -35 7 -22 17 -38 21 -35 5 3
9 0 9 -5 0 -20 20 -11 29 11 11 30 2 58 -18 59 -10 0 -11 2 -3 6 6 2 12 11 12
19 0 25 17 6 19 -21 3 -48 3 -60 -3 -87 -4 -16 -3 -28 1 -28 5 0 14 -13 21
-29 7 -17 23 -32 37 -35 16 -4 25 -13 25 -26 0 -11 5 -20 11 -20 5 0 7 -4 4
-10 -4 -6 7 -10 25 -10 27 0 30 -3 25 -20 -4 -12 -1 -27 5 -35 6 -8 9 -19 5
-25 -3 -5 2 -10 14 -10 11 0 22 -9 26 -20 3 -11 11 -20 16 -20 5 0 9 -4 9 -8
0 -9 40 -58 103 -123 20 -22 37 -44 37 -49 0 -13 77 -90 89 -90 6 0 18 -11 27
-26 9 -14 23 -23 30 -20 8 3 14 -1 14 -9 0 -8 9 -15 20 -15 11 0 20 -4 20 -8
0 -13 55 -72 67 -72 6 0 13 -9 16 -20 3 -12 11 -18 19 -15 7 3 22 -8 33 -25
12 -19 26 -29 36 -27 10 3 16 -2 15 -12 0 -9 5 -15 12 -13 8 1 11 -2 8 -7 -10
-15 18 -30 53 -29 18 1 36 -3 39 -8 4 -5 19 -15 34 -23 15 -8 24 -19 21 -24
-4 -6 0 -8 10 -4 10 4 17 1 17 -6 0 -8 4 -7 10 3 8 12 10 12 15 -2 8 -20 65
-22 65 -1 0 7 5 13 10 13 6 0 10 -7 10 -16 0 -14 3 -14 18 -3 14 11 15 11 5
-1 -18 -20 -16 -25 11 -26 16 -1 27 4 29 15 3 10 5 6 6 -9 1 -21 3 -22 11 -9
6 11 19 15 37 13 36 -5 83 5 83 16 0 5 -7 6 -17 3 -11 -4 -14 -3 -9 5 11 18
36 14 36 -5 0 -15 4 -13 21 7 20 24 21 24 16 3 -7 -31 9 -29 26 3 9 17 17 23
21 15 4 -6 2 -11 -4 -11 -6 0 -8 -4 -5 -10 9 -15 25 -12 25 5 0 8 8 15 18 15
14 0 15 -2 2 -10 -13 -9 -13 -10 0 -10 9 0 26 7 38 16 20 14 22 14 22 -2 0
-13 3 -14 14 -5 8 6 19 10 26 9 7 -2 15 3 18 11 3 10 0 12 -14 8 -18 -7 -18
-6 0 8 14 11 23 12 33 4 9 -8 13 -8 13 -1 0 6 10 16 21 23 20 10 21 9 17 -14
-5 -25 -4 -25 17 -9 13 9 20 23 17 31 -3 9 -1 12 6 7 7 -4 12 -2 12 6 0 7 11
23 24 36 27 25 45 30 26 7 -7 -8 -9 -15 -4 -15 12 0 54 51 54 65 0 7 7 15 15
19 8 3 15 1 15 -4 0 -6 5 -10 10 -10 6 0 10 6 10 13 0 16 35 59 47 58 4 -1 8
3 8 8 0 5 3 13 8 17 4 4 7 0 7 -9 0 -10 7 -17 16 -17 14 0 14 3 4 15 -11 13
-10 14 5 9 12 -5 16 -4 12 3 -7 11 16 37 25 28 3 -3 13 4 23 15 10 11 25 20
34 20 9 0 24 19 34 40 11 23 32 47 48 55 31 16 51 47 53 80 1 11 8 20 16 20
24 0 74 52 75 77 0 13 5 23 10 23 21 1 56 27 52 38 -2 7 2 18 9 25 11 10 14
10 14 0 0 -7 7 -2 16 10 9 13 14 32 11 43 -3 10 -1 19 4 19 5 0 9 -8 9 -17 1
-17 1 -17 11 0 5 9 16 17 24 17 8 0 17 5 21 12 5 8 2 9 -9 5 -10 -3 -17 -2
-17 3 0 6 5 10 11 10 5 0 8 4 5 8 -3 5 6 20 20 35 13 14 24 28 24 31 0 3 11
17 25 32 16 17 25 22 25 13 1 -8 7 2 14 23 7 20 25 47 39 61 15 13 24 27 20
30 -3 4 8 12 25 18 22 7 32 17 32 31 0 19 -1 19 -20 -3 l-20 -24 12 30 c7 17
20 38 29 47 9 9 19 23 22 30 8 20 27 -11 27 -43 0 -15 9 -69 20 -122 20 -101
26 -154 36 -342 3 -66 7 -122 9 -124 2 -2 7 10 10 25 13 57 17 61 31 29 7 -16
13 -25 14 -20 0 6 6 -1 14 -15 7 -14 9 -29 4 -35 -15 -17 -9 -115 8 -132 14
-15 15 -14 12 3 -2 14 2 18 17 17 14 -1 11 2 -7 10 -16 6 -28 14 -28 18 0 11
51 49 64 49 6 0 2 -7 -8 -15 -11 -8 -15 -15 -9 -15 6 0 16 6 22 14 15 18 -1
30 -29 21 -16 -5 -19 -3 -13 12 3 10 11 24 17 32 7 10 7 13 1 9 -6 -4 -17 -3
-25 3 -13 7 -12 9 3 9 9 0 17 7 17 15 0 9 7 18 15 21 8 4 15 11 15 17 0 5 -9
2 -20 -8 -11 -10 -23 -15 -27 -12 -4 4 2 14 13 22 14 11 15 14 3 9 -10 -3 -19
-1 -23 4 -3 5 13 9 36 10 24 1 45 -3 50 -10 5 -9 8 -8 8 5 0 17 -19 22 -65 19
-19 -2 -19 -1 -2 12 17 13 24 32 8 22 -8 -5 -25 30 -22 47 1 4 2 15 4 25 1 9
6 23 10 30 5 7 3 12 -7 12 -9 0 -16 7 -16 16 0 14 3 14 15 4 13 -11 14 -7 10
31 -3 24 -10 46 -15 47 -6 2 -10 10 -10 18 0 9 4 13 8 10 5 -3 9 1 9 9 0 8 -4
12 -8 9 -5 -2 -17 3 -28 12 -17 15 -18 19 -5 29 15 10 10 50 -5 41 -4 -3 -13
4 -20 16 -10 16 -10 18 0 12 9 -5 10 -2 5 12 -9 22 -9 23 -7 47 1 11 6 15 13
11 7 -4 8 -3 4 5 -4 6 -12 9 -17 6 -5 -4 -9 3 -9 14 0 12 5 21 11 21 6 0 0 15
-13 33 -13 17 -27 40 -31 50 -4 10 -11 15 -17 12 -5 -3 -10 3 -10 14 0 10 4
21 10 23 6 2 6 8 0 18 -9 13 -11 13 -19 0 -5 -8 -7 -18 -4 -24 3 -5 1 -6 -6
-2 -6 4 -8 12 -5 18 4 6 -1 8 -15 3 -25 -8 -28 10 -3 24 15 9 15 10 -3 8 -11
0 -31 -6 -44 -13z"/>
<path d="M3590 4260 c-30 -9 -71 -26 -91 -37 -19 -11 -51 -24 -70 -28 -19 -4
-70 -24 -114 -45 -46 -21 -103 -40 -135 -43 -30 -4 -56 -11 -58 -16 -2 -6 -9
-8 -17 -5 -7 3 -16 1 -20 -5 -3 -6 -19 -11 -36 -11 -25 0 -74 -16 -304 -96
-27 -10 -70 -27 -95 -38 -25 -11 -52 -21 -60 -22 -21 -2 -214 -51 -278 -70
-29 -8 -96 -27 -149 -40 -114 -30 -192 -68 -252 -123 -43 -40 -58 -50 -46 -31
10 16 -53 12 -161 -10 -81 -17 -109 -27 -156 -60 -31 -22 -61 -40 -66 -40 -4
0 -44 -36 -88 -80 -43 -44 -85 -80 -92 -80 -7 0 -10 -4 -7 -10 3 -5 1 -11 -4
-11 -6 -1 -15 -3 -21 -4 -5 -1 -17 -3 -25 -4 -8 0 -14 -4 -14 -8 3 -21 -2 -33
-16 -33 -18 0 -20 17 -3 22 8 3 6 7 -5 11 -20 7 -96 -53 -122 -98 -10 -16 -12
-24 -4 -17 21 19 31 14 12 -7 -9 -11 -20 -18 -24 -16 -4 3 -26 -22 -50 -55
-24 -33 -47 -60 -51 -60 -5 0 -8 -7 -8 -15 0 -8 -4 -15 -10 -15 -5 0 -10 -8
-10 -17 0 -9 -3 -14 -6 -10 -8 7 -90 -80 -110 -116 -8 -15 -19 -25 -24 -22 -4
3 -19 -8 -33 -24 -14 -17 -28 -27 -32 -23 -10 10 102 -177 174 -292 112 -175
305 -430 476 -626 524 -602 1163 -1082 1880 -1412 606 -279 1211 -438 1895
-500 185 -16 739 -16 920 0 583 53 1083 170 1605 375 418 164 808 378 1215
665 119 85 326 244 340 262 3 3 66 61 140 127 429 384 819 863 1101 1354 l68
120 -32 19 c-18 11 -37 18 -44 16 -6 -3 -42 0 -79 6 -54 8 -68 7 -75 -4 -7
-10 -9 -10 -9 3 0 8 -11 26 -24 39 -14 12 -28 35 -31 51 -4 16 -17 37 -29 47
-13 10 -26 28 -30 40 -11 33 -81 84 -175 126 -46 21 -91 39 -101 41 -9 2 -36
17 -61 33 -24 16 -83 42 -130 56 -47 14 -116 45 -154 67 -65 40 -89 48 -260
90 -125 31 -275 79 -335 107 -78 36 -271 109 -362 137 -42 13 -85 28 -96 34
-12 6 -30 11 -42 11 -20 0 -125 39 -164 61 -18 11 -74 32 -204 80 -140 51
-225 111 -274 191 -10 15 -23 28 -30 28 -7 0 -41 18 -76 40 -34 22 -65 40 -68
40 -2 0 17 -39 43 -87 41 -77 55 -118 68 -198 1 -11 8 -42 15 -70 6 -27 14
-108 16 -180 6 -162 11 -226 24 -290 14 -67 24 -186 32 -366 3 -58 8 -112 13
-118 4 -7 8 -49 10 -94 1 -45 5 -92 9 -104 4 -13 3 -23 -2 -23 -5 0 -10 -23
-11 -52 0 -40 -6 -57 -23 -73 -12 -11 -16 -13 -10 -4 10 14 10 18 -3 23 -8 3
-22 3 -31 -1 -9 -3 -20 0 -25 8 -8 11 -9 9 -7 -6 1 -11 -2 -27 -6 -35 -6 -9
-1 -7 12 4 12 11 25 17 28 13 10 -10 -17 -48 -33 -45 -9 2 -18 -3 -21 -11 -3
-10 2 -11 19 -6 17 5 21 4 14 -3 -5 -6 -23 -12 -40 -14 -19 -2 -29 -8 -27 -17
2 -9 -3 -11 -13 -7 -9 3 -13 2 -10 -4 3 -6 -2 -10 -12 -11 -13 -1 -11 -3 7 -9
24 -8 24 -8 3 -9 -13 -1 -23 -4 -23 -8 -1 -21 -33 -46 -62 -49 -18 -2 -38 -11
-45 -20 -7 -9 -18 -14 -25 -12 -7 3 -60 -1 -118 -8 -124 -15 -299 -12 -310 6
-5 9 -9 9 -14 1 -5 -8 -13 -8 -29 1 -12 7 -31 13 -41 15 -11 2 -25 8 -33 14
-8 7 -13 7 -13 2 0 -6 -12 -8 -26 -5 -16 3 -23 10 -20 18 4 10 -1 11 -19 4
-14 -5 -49 -12 -78 -14 -54 -5 -146 -40 -159 -60 -10 -15 -119 -10 -129 6 -7
10 -9 10 -10 1 -1 -7 -2 -17 -3 -21 0 -4 -13 -20 -28 -35 -39 -39 -62 -84 -45
-90 6 -2 8 -8 4 -13 -10 -11 -119 -14 -132 -3 -6 4 -49 10 -97 12 -47 2 -91 7
-97 11 -20 13 -110 -6 -133 -28 -13 -12 -35 -30 -50 -39 -16 -10 -28 -23 -28
-29 0 -7 6 -3 14 8 14 19 14 19 13 -1 -1 -11 -13 -26 -27 -33 l-25 -12 27 5
c15 3 30 1 33 -5 3 -5 14 -10 23 -10 13 0 13 2 -4 14 -10 8 -16 18 -12 22 4 4
13 2 20 -4 7 -5 24 -12 38 -14 14 -1 26 -11 28 -20 2 -13 -1 -16 -12 -12 -12
5 -15 2 -9 -11 5 -15 2 -17 -19 -12 -15 4 -34 10 -45 14 -10 3 -15 3 -11 -2 4
-4 0 -14 -10 -21 -16 -13 -16 -13 1 -14 9 0 17 5 17 10 0 6 10 10 22 10 50 0
-60 -46 -115 -49 -37 -1 -47 -8 -40 -27 3 -8 2 -14 -3 -13 -5 1 -26 -5 -46
-14 -21 -10 -44 -17 -52 -17 -21 0 -66 -22 -66 -32 0 -14 -37 -9 -50 7 -7 8
-19 15 -27 15 -13 0 -42 13 -93 41 -8 5 -43 23 -77 40 -33 18 -67 42 -74 55
-6 13 -16 21 -20 18 -4 -2 -11 1 -15 7 -3 6 0 15 7 20 11 7 10 9 -4 9 -11 0
-17 6 -14 13 2 6 -5 20 -15 29 -11 9 -17 22 -13 29 5 8 -2 9 -26 5 -30 -5 -32
-5 -11 6 23 12 27 25 13 46 -12 20 -95 -3 -87 -24 3 -8 0 -14 -8 -14 -7 0 -13
8 -13 18 0 19 27 43 40 35 11 -7 57 17 57 29 0 5 -4 7 -9 4 -12 -8 -42 59 -35
77 3 8 1 18 -5 22 -6 3 -11 2 -11 -4 0 -7 -8 -7 -25 1 -15 7 -25 20 -25 32 -1
18 -2 19 -13 6 -13 -16 -116 -20 -152 -6 -11 4 -22 1 -27 -6 -6 -10 -16 -4
-37 22 -16 19 -28 37 -26 39 2 1 -2 9 -8 16 -9 9 -16 10 -25 2 -11 -8 -12 -5
-7 14 5 20 2 25 -14 26 -15 1 -18 -3 -14 -15 5 -14 3 -15 -8 -4 -7 6 -24 12
-39 12 -17 0 -21 3 -12 9 11 7 10 10 -3 15 -23 9 -25 8 -19 -9 5 -12 0 -12
-28 -5 -18 6 -35 10 -37 10 -2 0 -1 7 3 15 4 12 -7 15 -76 13 -53 -2 -83 2
-85 9 -3 8 -12 7 -31 -3 -14 -7 -29 -10 -32 -5 -3 4 -12 7 -20 5 -8 -2 -37 -7
-65 -13 -27 -5 -70 -15 -95 -21 -25 -6 -55 -9 -67 -7 -13 2 -23 0 -23 -4 0
-14 -44 -11 -59 4 -10 10 -12 9 -9 -3 2 -12 -8 -14 -57 -11 -33 2 -67 7 -75
11 -8 4 -21 5 -29 2 -7 -2 -17 2 -22 9 -7 12 -9 12 -9 0 0 -11 -3 -11 -15 -1
-8 7 -15 8 -15 3 0 -5 -7 -10 -15 -10 -8 0 -15 4 -15 9 0 5 -7 5 -15 1 -8 -5
-48 -6 -87 -2 -40 4 -76 5 -80 2 -5 -2 -8 0 -8 4 0 5 -8 9 -19 9 -12 0 -17 -5
-13 -15 5 -12 2 -12 -17 1 -12 9 -31 14 -42 11 -21 -6 -27 12 -6 21 6 4 2 4
-10 2 -13 -2 -23 0 -23 5 0 5 6 9 14 9 8 0 18 5 21 11 4 6 -4 9 -22 7 -23 -2
-29 1 -31 20 -3 17 -8 21 -23 17 -14 -5 -19 -2 -19 12 0 14 -2 15 -9 4 -13
-20 -20 5 -13 47 4 26 2 31 -10 27 -19 -7 -32 33 -17 51 6 8 5 13 -4 17 -10 4
-13 19 -11 54 6 84 16 148 25 159 6 7 9 16 7 20 -4 18 26 130 44 162 12 23 17
44 13 65 -8 43 -9 223 -2 327 3 47 9 130 12 185 4 55 11 105 16 110 4 6 7 19
5 30 -3 19 23 127 41 175 6 14 8 30 6 36 -2 6 3 17 12 24 8 7 15 19 15 26 0 7
9 30 20 50 12 20 20 37 18 39 -2 1 -28 -6 -58 -15z"/>
</g>
</svg>
